/* XPM */
static char *ddee2b086cc34e66dc2d9e48dd8466canuJNZBZRiTguEQ7u[] = {
/* columns rows colors chars-per-pixel */
"48 48 15 1 ",
"  c #020435",
". c #010334",
"X c #030536",
"o c #030335",
"O c #000233",
"+ c #040637",
"@ c #040436",
"# c #020234",
"$ c #050738",
"% c #000031",
"& c #000132",
"* c #050537",
"= c #060839",
"- c #010133",
"; c white",
/* pixels */
" . .X.   .X.X. .                oo.X. .   .X. . ",
".XO+O+. .XO+O+O                 @#+O+OX. .+O+OX.",
" O$%$&+. O$&$&X.                #*&$%+O .+&$%$O ",
".+%=%$OX.+&=%$&                 @-$%=%+.XO$%=%+.",
"XO$%=%+. &$%=&+.                #*&=%$& .+%=%$OX",
".+&$%$O .X&$&$O                 @-$&$&X. O$%$&+.",
" .+O+OX. O+O+OX.........        o@O+OXO .XO+O+. ",
"  .X. . . .X.X. ........        ooX. . . . .X.  ",
" . .X.    X. . .                . . .X    .X. . ",
".XO+O+.  XO+OXO                  OXO+OX  .+O+OX.",
" O$%$&+.XO$&$&X.                .X&$&$OX.+&$%$O ",
".+%=%$OX.+&=%$&                  &$%=&+.XO$%=%+.",
"XO$%=%+.XO$%=%+.                .+%=%$OX.+%=%$OX",
".+&$%$O .+&$%+O                  O+%$&+. O$%$&+.",
" .+O+OX.X.+O+OX.                .XO+O+.X.XO+O+. ",
"  .X. .   .X. .                  . .X.   . .X.  ",
"        ........        ................        ",
"                                                ",
"                                                ",
"                                                ",
"                                                ",
"        ........        ................        ",
"                                                ",
"                                                ",
"                                                ",
"                                                ",
"        ........                ........        ",
"                                                ",
"                                                ",
"                                                ",
"                                                ",
"        ........                ........        ",
"  .X. .   .X. . .   ..           . .X.   . .X.  ",
" .+O+OX.X.+O+OX..   ..          .XO+O+.X.XO+O+. ",
".+&$%$O .+&$%+O .   ..           O+%$&+. O$%$&+.",
"XO$%=%+.XO$%=%+..   ..          .+%=%$OX.+%=%$OX",
".+%=%$OX.+&=%$& .   ..           &$%=&+.XO$%=%+.",
" O$%$&+.XO$&$&X..   ..          .X&$&$OX.+&$%$O ",
".XO+O+.  XO+OXO .   ..           OXO+OX  .+O+OX.",
" . .X.    X. . ..   ..          . . .X    .X. . ",
"  .X. .   .X. . ........        ooX. . . . .X.  ",
"X.+O+OX. .+O+OX.                o@O+OXO .XO+O+. ",
".+&$%+O .+&$%$O                 @-$&$&X. O$%$&+.",
"XO$%=%+.XO$%=%+.                #*&=%$& .+%=%$OX",
".+&=%$& .+%=%$OX                @-$%=%+.XO$%=%+.",
"XO$&$&X. O$%$&+.                #*&$%+O .+&$%$O ",
" XO+OXO .XO+O+.                 @#+O+OX. .+O+OX.",
"  X. . . . .X.                  oo.X. .   .X. . "
};
