/* XPM */
static char *_bd2cc14f216424a95bd159364b6f08ezyMOD2jAgZM0JgQT[] = {
/* columns rows colors chars-per-pixel */
"48 48 18 1 ",
"  c black",
". c #010000",
"X c #140504",
"o c #2C0B09",
"O c #390F0C",
"+ c #4A1410",
"@ c #5A1914",
"# c #7E221C",
"$ c #85251E",
"% c #962921",
"& c #9B2A22",
"* c #BC3429",
"= c #CA372C",
"- c #D93B30",
"; c #E73F33",
": c #F04235",
"> c #F54336",
", c #F84437",
/* pixels */
"                                                ",
"              ......      ......................",
"   ooooooooooo...ooooooooooooooooo..Xoooooooo...",
"  o-;;;;;;;;;-O.X=;;;;;;;;;;;;;;;*X.+-;;;;;;-O..",
"  o;,>>:>>>:,;O X-,>>:>>:>>:,>:>,=X +:>>,,:>;O..",
"  o;,>>>>>>>,;O X->>>>>>>>>>,>>>,=X +:>:>>>,;O  ",
"  o;>>>>>>>>,;O X-,>>>>>>>>>>>>>,=X +:>>>>>>;O  ",
"  o;>>>>>:>>>;O X-,>>>>>>>>>>>>>,=X +:>>>>>>;O  ",
"  o;>>>>>>>>>;O X->>>>>>>>>>>>>>,=X +:>>>>>>;O..",
"  o;>>>>>>>>,;O X->>>>>>>>>>>>>>,=X +:>>>>>>;O..",
" .o;>>,,>>>>,;O.X->>>>,,>>>>>>>>,=X.+:,>>>,,;O..",
" .X@@@@@@@@@@@X.X+@@@@@@@@@@@@@@@+..X@@@@@@@@X..",
" .......      ..    ......      ........    ....",
" .......    . ..  .........   ..........  ......",
" .o*****@ .$****************O.X&*************o..",
" .o;,,,,$ .&,,,,,,,,,,,,,,,,+.X=,,,,,,,,,,,,:O..",
"  o;>>>,$  &,>>>,>>>>>>>>>>:+ X=,>>>>>>>>>>>;O..",
"  o;>>>,#  &,>>>,>>>>>>>>>>:+ X=,>>>>>>>>>>,;O..",
"  o;>>>,#  &,>>>>>>>>>>>>>>:+ X=,>>>>>>>>>>>;O..",
"  o;>>>,#  &,>>>>>>>>>>>>>>:+ X=,>>>>>>>>>>,;O..",
"  o;>>>,#  &,>>>>>>>>>>>>>>:+ X=,>>>>>>>>>>>;O .",
"  o;,>,,$  &,>,,,,,,,,,,,,>>+ X=,,,,,,,>,,,,:O  ",
" .X$&%&&+. @&%&&%&%%%&%%%%&&o X$%%%&%%&&%&%%%o  ",
"       ..                                       ",
" .          ..                 .     .      ....",
" .X$$$$$$$$$$$X X$$$$$$$$$$$$$$$$$  o$$$$$$$$X..",
" .o;,,,,,,,,,:O X-,,,,,,,,,,,,,,,=X +,,,,,>,:O..",
" .o;>>>,>>>>>;O X->>>,>>>>>>>>,,,=X +:,>>,>,;O..",
"  o;>>>>>>>>>;O X->>>>>>>>>>>>>>,=X +:>>>>>>;O..",
"  o;>>>>>>>>>;O X->>>>>>>>>>>>>>,=X +:>>>>>>;O..",
"  o;>>>>>>>>>;O X->>>>>>>>>>>>>>,=X +:>>>>>>;O..",
"  o;>>>>>>>>>;O X->>>>>>>>>>>>>>,=X +:>>>>>>;O..",
" .o;,,,,,,,,,:O.X-,,,,,,,,,,,,,,,=X.+,,,,,,,:O..",
" .o*=========*o.X*===============&X.O=======*o..",
" ..XXXXXXXXXXX.. XXXXXXXXXXXXXXXXX.. XXXXXXXX...",
" ...      ......     .......... ....        ....",
" .X+++++o  o++++++++++++++++X  O+++++++++++++X..",
" .o-:::>$  &,:::::::::::::::+ X=,:::::::::::;O..",
" .o;,>>,#  &,>,>>>>>>>>>,>>:+ X=,>>>>>>>>>,>;O..",
" .o;,>>,#  &,>>>>>>>>>>>,>>:+ X=,,>>>>>>>>,,;O..",
"  o;>>>,#  &,>>>>>>>>>>>>>>:+.X=,>>>>>>>>>>>;O  ",
"  o;>>>,#  &,,>>>>>>>>>>>>>:+.X=,>>>>>>>>>>,;O  ",
"  o;>>,,#  &,>>>>>>,>>>>>>,:+.X=,>>>>>>>>>>>;O  ",
"  o;>>,,$  &,>>>>>>,>>>>>>,:+.X=,>>>>>,,>>>>;O..",
"  o-;;;:$  &:;;;;;;;;;;;;;;;+.X*:;;;;;;;;;;;;O..",
"  .OOOOOX  oOOOOOOOOOOOOOOOOX..oOOOOOOOOOOOOOX..",
" .....    ....  .........   .....   ............",
" .....    ....  .........   .....   ............"
};
