/* XPM */
static char *a149149e4b13474b879ceb2edd2ee484fMVecMP1fYoWm0hm[] = {
/* columns rows colors chars-per-pixel */
"48 48 226 2 ",
"   c None",
".  c #CC8212",
"X  c #C98317",
"o  c #CB8316",
"O  c #CC861A",
"+  c #C9851D",
"@  c #CC881F",
"#  c #D58915",
"$  c #D28919",
"%  c #D68B1A",
"&  c #D88E1E",
"*  c #DB9311",
"=  c #DE9311",
"-  c #DB9513",
";  c #DD9412",
":  c #DC9614",
">  c #DF9818",
",  c #DD9B18",
"<  c #DF9A1B",
"1  c #E09110",
"2  c #E19517",
"3  c #E19719",
"4  c #CEA01F",
"5  c #C78622",
"6  c #C78827",
"7  c #CE8B26",
"8  c #C88B2D",
"9  c #D48D21",
"0  c #D98F20",
"q  c #D89126",
"w  c #DF9E21",
"e  c #D1902D",
"r  c #DA982E",
"t  c #C38B35",
"y  c #C58C34",
"u  c #CA8F34",
"i  c #C58E3B",
"p  c #CD9136",
"a  c #CE9F37",
"s  c #C8913B",
"d  c #CC9239",
"f  c #CF963F",
"g  c #D19333",
"h  c #D49E31",
"j  c #D49639",
"k  c #D6993B",
"l  c #D99E3A",
"z  c #DF9E39",
"x  c #E39D21",
"c  c #CFA220",
"v  c #D0A524",
"b  c #D7A725",
"n  c #DFA120",
"m  c #D2A728",
"M  c #D2A82C",
"N  c #DCA92B",
"B  c #DEB02F",
"V  c #D4A734",
"C  c #D8B534",
"Z  c #DAB33C",
"A  c #DDBF3E",
"S  c #E1A12B",
"D  c #E4A229",
"F  c #E1A82B",
"G  c #E7A733",
"H  c #E2AF30",
"J  c #E4AE32",
"K  c #E3AB3D",
"L  c #F3A936",
"P  c #E5B539",
"I  c #E6B439",
"U  c #E6B73C",
"Y  c #C79342",
"T  c #CC9644",
"R  c #CB984A",
"E  c #D19A45",
"W  c #D99F45",
"Q  c #D09B4A",
"!  c #D5A140",
"~  c #D5A644",
"^  c #DFA343",
"/  c #D6A14A",
"(  c #D6A04E",
")  c #D7A54C",
"_  c #DBA149",
"`  c #DFA84D",
"'  c #D8B546",
"]  c #DEBE45",
"[  c #DEB54D",
"{  c #D3A053",
"}  c #DBA655",
"|  c #D5A856",
" . c #DBAF57",
".. c #D6A65C",
"X. c #DAA95D",
"o. c #DEAB5D",
"O. c #E4A647",
"+. c #E4AF43",
"@. c #E2AE49",
"#. c #E3BC45",
"$. c #F1B547",
"%. c #E4A950",
"&. c #E5AA50",
"*. c #E0AA57",
"=. c #E0AF5E",
"-. c #E5B355",
";. c #EDBA51",
":. c #E4B05F",
">. c #E9B15B",
",. c #FFBF5B",
"<. c #D8AC66",
"1. c #DCAD66",
"2. c #DDB16E",
"3. c #DFB474",
"4. c #E2B166",
"5. c #E6B365",
"6. c #EBB766",
"7. c #E2B66A",
"8. c #E6B66C",
"9. c #E4B974",
"0. c #E8B972",
"q. c #ECBC70",
"w. c #EFBF73",
"e. c #EBBD77",
"r. c #E1B879",
"t. c #E4BB7E",
"y. c #E8BD7B",
"u. c #ECBF7B",
"i. c #E7C245",
"p. c #E2C849",
"a. c #E9C84A",
"s. c #E0C654",
"d. c #EAC554",
"f. c #E9C951",
"g. c #EBCB53",
"h. c #EBC855",
"j. c #EBCE5C",
"k. c #E6D153",
"l. c #E8D153",
"z. c #E9D75A",
"x. c #E9D55E",
"c. c #E9D65E",
"v. c #ECDB5F",
"b. c #E2C660",
"n. c #EDC962",
"m. c #EDCA65",
"M. c #FFC66E",
"N. c #EEDB60",
"B. c #EEDC61",
"V. c #E6D16A",
"C. c #E5C570",
"Z. c #EBC17F",
"A. c #E7CB7B",
"S. c #F2C37C",
"D. c #FFCB7C",
"F. c #EBD170",
"G. c #EDDB7A",
"H. c #F0D579",
"J. c #EEE468",
"K. c #EFE569",
"L. c #F0E369",
"P. c #F0E76D",
"I. c #E4BD82",
"U. c #E7C186",
"Y. c #EEC381",
"T. c #EFC585",
"R. c #EAC58C",
"E. c #F3C681",
"W. c #F2C888",
"Q. c #F2C98B",
"!. c #F2CC89",
"~. c #F6CD8F",
"^. c #FBCE88",
"/. c #ECD58E",
"(. c #EFDB89",
"). c #FCD18E",
"_. c #F1DC89",
"`. c #EBC891",
"'. c #EDCA95",
"]. c #EECD9C",
"[. c #F3CC91",
"{. c #F1CC95",
"}. c #F6CF95",
"|. c #FCD292",
" X c #FCD495",
".X c #F8D29A",
"XX c #FDD599",
"oX c #FBD69E",
"OX c #F2E290",
"+X c #F5E79B",
"@X c #F4E79C",
"#X c #EFD0A2",
"$X c #F4D3A1",
"%X c #F6D6A6",
"&X c #F8D4A0",
"*X c #FCD9A2",
"=X c #FCDAA7",
"-X c #F0D3A8",
";X c #F2D8AE",
":X c #F9DBAF",
">X c #FDDDAC",
",X c #FDDEAF",
"<X c #F2DAB4",
"1X c #FBDFB6",
"2X c #F5DDB9",
"3X c #F0E3A4",
"4X c #F5EAAB",
"5X c #F7F4AE",
"6X c #FEE2B7",
"7X c #FCE2BB",
"8X c #FDE4BF",
"9X c #F3E8B9",
"0X c #F8F2BE",
"qX c #FAF5BE",
"wX c #FEE7C3",
"eX c #FAE4C4",
"rX c #FCE7C7",
"tX c #F7E6CC",
"yX c #FEE9C8",
"uX c #FDEACD",
"iX c #FBF9CD",
"pX c #FDEDD5",
"aX c #FCEFDB",
"sX c #FDF2E0",
"dX c #FEF5E7",
"fX c #FEF9F2",
/* pixels */
"                                                                                                ",
"                                                                                                ",
"                                                                                                ",
"                                                                                                ",
"                                        (.@X0XiXiX0X@X(.                                        ",
"                                  g.h.F._.3X9X9X9X3X/.F.s.' N                                   ",
"                              J $.;.[ ~ ! ! / / / / / ~ ~ V m 4 c v                             ",
"                          > G K l e $ # # % 9 9 q e k _ *.o.) a 4 m B                           ",
"                      ; D D r & % % % # # # % 9 9 e l ` :.q.T.Y. .V C ] A                       ",
"                    1 3 r r q & & % % # # # 9 >.` e l *.5.e.W.W.Y.7.~ ] p.k.                    ",
"                  1 3 w k z r q & & % % # # 9 S.6.e W *.8.Y.Q.T.y.q.4.) ] k.k.                  ",
"                ; 3 w ^ %.O.z r q q q q & & r W.e.k _ :.q.W.W.Y.q.8.4.X.~ s.v.x.                ",
"                = w @.6.>.%.O.z z O.=.u.'.$X%X:X$XW.E.u.S.W.Y.e.8.4.o.} { ! N.K.                ",
"              > 3 ^ q.q.6.>.%.%.5.#XaXdXaXuXeX7X1X<XoX.X[.W.y.q.4.o.} ( E Y ' J.P.              ",
"            ; 3 z Y.W.S.w.6.5.0.2XfXfXdXaXpXuXeX8X1X:X%X.X[.T.8.o.} ( E j d p s.L.c.            ",
"            2 w q..X}.!.E.w.q.$XdXfXdXdXaXaXpXuXrXeX1X:X%X&X}.u.} ( E T u 8 6 h N.B.            ",
"            w +.oX=XoX.X~.E.S.7XsXdXdXsXsX<Xr.2X;X#XeX1X1X1X.X}.o.f d u 8 6 5 5 ] N.            ",
"          w x q.>X,X>X=XoX}.~.1XrXpXsXdXtXk $ -X{.Q -XyXwX1X:X=X9.u 8 6 5 5 + X h l.g.          ",
"          S K E..XoX=X>X,X=X.XXX>X7XuXsX<X0 0 ;X#X*.R.<X;X-X#X].r.8 5 5 + o X o @ i.h.          ",
"          G -.Y.Q.[.}..X*X>XoX^. X=X6XyXeXz 0 <X-X8.y...Q T s t 6 + o o o o o o O Z i.          ",
"        I +.-.e.y.Y.Y.E.[.}.}.^.^.).*X1XwX%X@.2X;Xe.0.} T u 6 + o o o o O @ $ 5 @ V i.I         ",
"        U ;.=.4.8.8.0.9.e.Z.Z.E.).^.^.XX>X8XeXpXeXT.} p 6 + o o o O 5 @ @ 7 7 7 7 h i.I         ",
"        #.d.-.*.*.*.o.=.:.4.5.4.~.|.^.^.|.=X7XyXaXpX;X2.g @ O 5 7 7 7 7 e e e e e h U C         ",
"        g.m.` W W W W W _ _ _ / } W. X).^.|.*X1XrXpXsXsXwXR.W j j j j j j j k k k l U F         ",
"        m.F.%.g g g g g e e e e 7 p 4.W.).^.).oX1X1XpXaXdXdXtXU.o.} W _ _ _ _ _ _ ^ J J         ",
"        H.OX1.e 7 @ @ @ @ + O O X . X 8 ( 8.S.^.XX=X1XuXaXdXdXsX].8.1.*.*.*.*.} } ` F B         ",
"        @X4XY.p @ O O o o . . . . X + 6 p { 1.E.E.Q.=X1XrXpXdXfXaX`.q.8.5.5.=.:.o.@.F N         ",
"        +XqX;Xk O . . . . . o X + 5 y j ..I.U.~.8.s q.oX>XwXpXdXdX%XT.u.e.q.0.8.8.@.w b         ",
"          qX9X_ O . . X X X 7 W ( ..1.r.I.`.I.[.9.t d S.XX>X8XyXsX:X~.W.T.Y.u.e.e.K n           ",
"          5X4X_ O X X + + 5 g ).,X7XwXyXwXR.r.%Xy.t i w.^.|.=X1XrX%X}.}.[.W.W.T.e.F >           ",
"          3XOX .+ + + 5 6 8 p S.XX>X8XyXuX-X3.%XU.t Q [.).^.|.*X<XR.W.[.}.}.}.[.6.n <           ",
"            G.s.7 5 6 6 8 d f O.M.).=X6XwXrX;X8X].2.{.*XXX|.^.^.W.9.Y.T.Q.[.}.}.+.:             ",
"            V.b.! 6 y u d E { ( L ,.^.*X6XwXyXuXrX8X6X>X*X X|.^.4.2.9.y.Y.T.[.q.x -             ",
"            c.s.#.d u j E { X.1._ L ,.D.XX,X8XyXuXyXwX6X1X=XoX7.{ <.2.9.y.Y.Y.K - -             ",
"              #.' ~ E Q { ..1.3.t.o.G $.M.|.>X7XwXuXuXyX8X.X<.T { ..1.2.9.y.-.: >               ",
"                m m ( { ..1.3.t.R.'.r.) ^ >.S.oX,X:X;X].2.Y t T Q { ..1.2.=.x =                 ",
"                v 4 V =.1.2.r.U.`.'.R.I.2...{ S.e.Y i t t t y i T Q { <.*.x : :                 ",
"                  b m Z 7.r.I.R.'.`.U.t.3.<...;.>.Y i i t t y y d T { *.S > *                   ",
"                    b C ] C.R.'.'.R.I.r.2.<...S z Y i i t t y t i R @.N > -                     ",
"                      A A p.F./.`.U.I.r.2.<...R Y Y i i t t t d / K w > -                       ",
"                          g.k.x.G.!.U.r.2.<...{ R Y i i i T ) @.N x >                           ",
"                            x.z.v.K.G.G.A.9.2.<...| |  .[ +.J F D :                             ",
"                                  K.K.L.L.v.x.j.d.d.i.P U F N                                   ",
"                                        v.g.g.a.a.#.U U                                         ",
"                                                                                                ",
"                                                                                                ",
"                                                                                                ",
"                                                                                                "
};
