/* XPM */
static char *_d098b07e42948edb34a34ff09961b73uPYrllq1MkXsEHiC[] = {
/* columns rows colors chars-per-pixel */
"50 48 207 2 ",
"   c None",
".  c black",
"X  c #000101",
"o  c #000102",
"O  c #000202",
"+  c #000302",
"@  c #010203",
"#  c #000403",
"$  c #000204",
"%  c #000507",
"&  c #010606",
"*  c #010609",
"=  c #01080B",
"-  c #010A0E",
";  c #0B0F0E",
":  c #130B03",
">  c #1F1509",
",  c #020D12",
"<  c #020D13",
"1  c #020F15",
"2  c #020F16",
"3  c #0B0F12",
"4  c #021017",
"5  c #021119",
"6  c #03121A",
"7  c #03141D",
"8  c #03151F",
"9  c #0F1519",
"0  c #061B1B",
"q  c #1D1D1D",
"w  c #291403",
"e  c #271D0E",
"r  c #311D0B",
"t  c #2D261E",
"y  c #372F1D",
"u  c #041720",
"i  c #041821",
"p  c #041B27",
"a  c #051E2B",
"s  c #051F2C",
"d  c #022523",
"f  c #05202E",
"g  c #042B2A",
"h  c #10292F",
"j  c #062231",
"k  c #062331",
"l  c #062433",
"z  c #022435",
"x  c #062535",
"c  c #062637",
"v  c #092635",
"b  c #062738",
"n  c #072A3B",
"m  c #072B3C",
"M  c #072C3F",
"N  c #132A33",
"B  c #063433",
"V  c #073E38",
"C  c #222524",
"Z  c #292724",
"A  c gray16",
"S  c #2C2C2C",
"D  c #363132",
"F  c #471002",
"G  c #551507",
"H  c #492E0D",
"J  c #513818",
"K  c #7C2F19",
"L  c #684920",
"P  c #7F5623",
"I  c #7F5825",
"U  c #705A32",
"Y  c #072E42",
"T  c #073246",
"R  c #083347",
"E  c #083F40",
"W  c #083348",
"Q  c #083349",
"!  c #08354B",
"~  c #09364E",
"^  c #1B3D4D",
"/  c #063851",
"(  c #093951",
")  c #0A3A52",
"_  c #0A3C55",
"`  c #093C56",
"'  c #0A3E59",
"]  c #084C45",
"[  c #09504C",
"{  c #09544C",
"}  c #0B405D",
"|  c #0A425E",
" . c #0A465D",
".. c #0A4C5C",
"X. c #11465F",
"o. c #0A5951",
"O. c #095854",
"+. c #264743",
"@. c #374D4A",
"#. c #304455",
"$. c #0B605D",
"%. c #0B4664",
"&. c #0B4B63",
"*. c #0C4B6A",
"=. c #0C4D6D",
"-. c #0F4F6F",
";. c #1C4C62",
":. c #0C5366",
">. c #0C596D",
",. c #0C5072",
"<. c #0D5275",
"1. c #0E5478",
"2. c #0E5679",
"3. c #0E587C",
"4. c #195C7B",
"5. c #245066",
"6. c #2B5B73",
"7. c #345C71",
"8. c #0C6964",
"9. c #0E6D77",
"0. c #0D7271",
"q. c #414040",
"w. c #434141",
"e. c #554441",
"r. c gray35",
"t. c #5D5B5B",
"y. c gray38",
"u. c #6F6D6B",
"i. c #677075",
"p. c #65767F",
"a. c #797878",
"s. c #883E1B",
"d. c #C03E1F",
"f. c #9C4D0F",
"g. c #915612",
"h. c #96692E",
"j. c #A7712B",
"k. c #AA7C3C",
"l. c #CC6312",
"z. c #9B6744",
"x. c #A66252",
"c. c #E06F54",
"v. c #0E8176",
"b. c #C18638",
"n. c #CA8C3A",
"m. c #D3923D",
"M. c #D69540",
"N. c #E39C41",
"B. c #EFA646",
"V. c #0F5B80",
"C. c #0E5D83",
"Z. c #0F6185",
"A. c #0F6189",
"S. c #10648E",
"D. c #0F7880",
"F. c #10758C",
"G. c #126792",
"H. c #116D9B",
"J. c #127798",
"K. c #1373A3",
"L. c #1876A6",
"P. c #1A78A5",
"I. c #1376A8",
"U. c #147AAD",
"Y. c #157CAF",
"T. c #157DB1",
"R. c #157FB4",
"E. c #0F8684",
"W. c #11978C",
"Q. c #119B8F",
"!. c #118D91",
"~. c #12929A",
"^. c #11A193",
"/. c #12A79A",
"(. c #138DA0",
"). c #149DA8",
"_. c #1582B9",
"`. c #1687BF",
"'. c #1696B9",
"]. c #13ABA1",
"[. c #13B0A3",
"{. c #13B4A7",
"}. c #14B7A7",
"|. c #16AEB7",
" X c #15BEB0",
".X c #6C818C",
"XX c #7C919B",
"oX c #15C6B4",
"OX c #16CAB8",
"+X c #1789C3",
"@X c #178CC7",
"#X c #178EC9",
"$X c #1891CE",
"%X c #808080",
"&X c #848484",
"*X c gray53",
"=X c #889298",
"-X c #9B9C9C",
";X c #A4A4A4",
":X c #B6B6B6",
">X c #C7ADA0",
",X c #FAD7A8",
"<X c #C4C4C3",
"1X c #C9CACA",
"2X c #D8D8D8",
"3X c #DFDFDF",
"4X c #FCECD7",
/* pixels */
"                                                                                                    ",
"                                                                                                    ",
"                                          & & *                                                     ",
"                                    $ . { Q.W.J.Y . *                                               ",
"                                  * %.:.!.).8.J.' a a .                                             ",
"                                $ m '.|.~.<.a C.2.| ~ i                                             ",
"                              . f F. XF.Y a 3.R.H.,.' ( 4                                           ",
"                              . ]  XoXV n =.| %.2.3.<.` 4 .                                         ",
"                            $ F K z.z.K D <.I.I.` Q 3.' Y u                                         ",
"                            . G d.c.d.K #.H.#X#XC.~ R b ( a .                                       ",
"                            . G x.>Xs.#.C.I.I.@X_.-.; $ x u .                                       ",
"                            . v e.d.#.K.-.3 0 I.( C e.: . $ .                                       ",
"                            . =.G.#.I./ i.>Xh.U r & r f.w & .                                       ",
"                              Y -.G.| < %X4XM.g.r . w l.r .                                         ",
"                                Y 4.y : i.,XN.g.y 5 : s.Z z                                         ",
"                                  e n.J g.B.N.g.@.R . , *.<.` Q u                                   ",
"                                    b.n.M.B.B.g.S - , =.T.A.Y u H.! .                               ",
"                                  t m.B.h.L M.H N p 7 I.K.` B E.).J.| *                             ",
"                                  > g.M.j.g.j.C / Y 7 H.A.m B OX X|.J.(                             ",
"                    Z q ; D         * L k.k.L ;.A.%.u | 1.b g ].OX/.(.H.x 5 .                       ",
"                  3 -Xu.S :XS       * ; N ^  .R.#XH.T , Y p 2 ..].9. .<.T.=.p $                     ",
"                q ;X2Xa.Z -Xq . . p v.Q.O.p 2.`.I.2.` T 7 $ $ 5 .. .3.U.G.%.p .                     ",
"                q 1X1Xy.C =X^ Y f 0 ].OXQ.8.=.C.<.|  .D.0 w.&X&X=X7.<.H.*.| p .                     ",
"                q :X*Xr.y.-X5.C.-.B oXoX[.9.m n ..9.D./.g u.2X3X3XXX6.=.' M i                       ",
"                9 a.D u.1X=X5.H.H.:.].].D.` . . O.].{.Q.d t.<X3X3X<X.X` Q 5                         ",
"                  9 u.-X=X;.<.C.C.2.&.3.~ .   . m *.&. .5 u.3X3X3X<X.XT ,                           ",
"                    A S C 7 ` %.%.' i 0 &     . R S.K.2.! p.1X3X3X<Xi.5                             ",
"                      $ & * p a a p * $     + o.:.G.+XA.%.#.a.1X1X&Xw.                              ",
"                            . . . *         V {.E.Z.I.3.*.T +.%X&XS .                               ",
"                                        + V  XOX}.E.| ` <.~.W.0 ; $ .                               ",
"                                    . . ] ^.OX}.[.!.*.7 %.~.oX^.>.p .                               ",
"                                  $ x Q E $.}.[.~.>.f   i 0.^.[ &.! i $                             ",
"                                  2 <.C.( g 8.!.>.x +   . B O.x | | Y 4                             ",
"                                  a _.I.<.Y 5 | a .     . + a A.A.<.' Q ,                           ",
"                              * 7 %.+X#XS.` R 2           * x +X@XH.-.` ~ ,                         ",
"                              . p C.+X$XG.` ( -           . n @X$X+XG.` ` T 9 $                     ",
"                              . m U.#X#XG.` ( -           & a I.@X$XI.*.' ' p .                     ",
"                              . Q $X$X+XA.` ( -             5 %.`.$XY.3.' ' x 2                     ",
"                              * m _.+XG.*.` ( -               , I.$XU.1.( ~ ~ v .                   ",
"                            . . - a V.*.' ` ( -               , 2._.T.=.1 - - = & .                 ",
"                          $ Q <.<.! f ! ' ' ( -                 s 2.-.k ~ n b b b b 6               ",
"                        * m A.`.+XG.M k k k k p &               . s Y T H.S.2.%.' ' x 5             ",
"                      * x G.+X$X@XR.3.f - - 2 ! u *             . - Y H.#X$XU.C.| ' ' m 3           ",
"                    $ v Z._.+X+XU.2.' ~ ~ ~ ~ ( u &             . a 3.`.+X+X`.I.<.' ( ( m .         ",
"                    . - i a f f p 7 2 , , , , 2 . *             . - 7 a a a f p 7 , 2 , , .         ",
"                                                                                                    ",
"                                                                                                    ",
"                                                                                                    "
};
