/* XPM */
static char *_e2f7a6a24194a28885b6291f3dd82f3WLaIF3a7HKIZDYN5[] = {
/* columns rows colors chars-per-pixel */
"50 48 207 2 ",
"   c None",
".  c black",
"X  c #000101",
"o  c #000102",
"O  c #000202",
"+  c #000302",
"@  c #010203",
"#  c #000403",
"$  c #000204",
"%  c #000507",
"&  c #010606",
"*  c #010609",
"=  c #01080B",
"-  c #010A0E",
";  c #0B0F0E",
":  c #130B03",
">  c #1F1509",
",  c #020D12",
"<  c #020D13",
"1  c #020F15",
"2  c #020F16",
"3  c #0B0F12",
"4  c #021017",
"5  c #021119",
"6  c #03121A",
"7  c #03141D",
"8  c #03151F",
"9  c #0F1519",
"0  c #061B1B",
"q  c #1D1D1D",
"w  c #291403",
"e  c #271D0E",
"r  c #311D0B",
"t  c #2D261E",
"y  c #372F1D",
"u  c #041720",
"i  c #041821",
"p  c #041B27",
"a  c #051E2B",
"s  c #051F2C",
"d  c #022523",
"f  c #05202E",
"g  c #042B2A",
"h  c #10292F",
"j  c #062231",
"k  c #062331",
"l  c #062433",
"z  c #022435",
"x  c #062535",
"c  c #062637",
"v  c #092635",
"b  c #062738",
"n  c #072A3B",
"m  c #072B3C",
"M  c #072C3F",
"N  c #132A33",
"B  c #063433",
"V  c #073E38",
"C  c #222524",
"Z  c #292724",
"A  c gray16",
"S  c #2C2C2C",
"D  c #363132",
"F  c #471002",
"G  c #551507",
"H  c #492E0D",
"J  c #513818",
"K  c #7C2F19",
"L  c #684920",
"P  c #7F5623",
"I  c #7F5825",
"U  c #705A32",
"Y  c #072E42",
"T  c #073246",
"R  c #083347",
"E  c #083F40",
"W  c #083348",
"Q  c #083349",
"!  c #08354B",
"~  c #09364E",
"^  c #1B3D4D",
"/  c #063851",
"(  c #093951",
")  c #0A3A52",
"_  c #0A3C55",
"`  c #093C56",
"'  c #0A3E59",
"]  c #084C45",
"[  c #09504C",
"{  c #09544C",
"}  c #0B405D",
"|  c #0A425E",
" . c #0A465D",
".. c #0A4C5C",
"X. c #11465F",
"o. c #0A5951",
"O. c #095854",
"+. c #264743",
"@. c #374D4A",
"#. c #304455",
"$. c #0B605D",
"%. c #0B4664",
"&. c #0B4B63",
"*. c #0C4B6A",
"=. c #0C4D6D",
"-. c #0F4F6F",
";. c #1C4C62",
":. c #0C5366",
">. c #0C596D",
",. c #0C5072",
"<. c #0D5275",
"1. c #0E5478",
"2. c #0E5679",
"3. c #0E587C",
"4. c #195C7B",
"5. c #245066",
"6. c #2B5B73",
"7. c #345C71",
"8. c #0C6964",
"9. c #0E6D77",
"0. c #0D7271",
"q. c #414040",
"w. c #434141",
"e. c #554441",
"r. c gray35",
"t. c #5D5B5B",
"y. c gray38",
"u. c #6F6D6B",
"i. c #677075",
"p. c #65767F",
"a. c #797878",
"s. c #883E1B",
"d. c #C03E1F",
"f. c #9C4D0F",
"g. c #915612",
"h. c #96692E",
"j. c #A7712B",
"k. c #AA7C3C",
"l. c #CC6312",
"z. c #9B6744",
"x. c #A66252",
"c. c #E06F54",
"v. c #0E8176",
"b. c #C18638",
"n. c #CA8C3A",
"m. c #D3923D",
"M. c #D69540",
"N. c #E39C41",
"B. c #EFA646",
"V. c #0F5B80",
"C. c #0E5D83",
"Z. c #0F6185",
"A. c #0F6189",
"S. c #10648E",
"D. c #0F7880",
"F. c #10758C",
"G. c #126792",
"H. c #116D9B",
"J. c #127798",
"K. c #1373A3",
"L. c #1876A6",
"P. c #1A78A5",
"I. c #1376A8",
"U. c #147AAD",
"Y. c #157CAF",
"T. c #157DB1",
"R. c #157FB4",
"E. c #0F8684",
"W. c #11978C",
"Q. c #119B8F",
"!. c #118D91",
"~. c #12929A",
"^. c #11A193",
"/. c #12A79A",
"(. c #138DA0",
"). c #149DA8",
"_. c #1582B9",
"`. c #1687BF",
"'. c #1696B9",
"]. c #13ABA1",
"[. c #13B0A3",
"{. c #13B4A7",
"}. c #14B7A7",
"|. c #16AEB7",
" X c #15BEB0",
".X c #6C818C",
"XX c #7C919B",
"oX c #15C6B4",
"OX c #16CAB8",
"+X c #1789C3",
"@X c #178CC7",
"#X c #178EC9",
"$X c #1891CE",
"%X c #808080",
"&X c #848484",
"*X c gray53",
"=X c #889298",
"-X c #9B9C9C",
";X c #A4A4A4",
":X c #B6B6B6",
">X c #C7ADA0",
",X c #FAD7A8",
"<X c #C4C4C3",
"1X c #C9CACA",
"2X c #D8D8D8",
"3X c #DFDFDF",
"4X c #FCECD7",
/* pixels */
"                                                                                                    ",
"                                                                                                    ",
"                                                    % % #                                           ",
"                                              % + Y J.W.Q.{ + $                                     ",
"                                            $ p a ' J.8.).!.$.%.%                                   ",
"                                            u ~ | 2.C.f <.(.|.'.M $                                 ",
"                                          2 ( ' ,.H.R.3.a Y F. XF.j +                               ",
"                                        + 2 ` <.3.2.%.| =.n E oX XV +                               ",
"                                        u Y ' 2.Q ` K.K.<.D K z.z.K F +                             ",
"                                      + a ( b R ~ C.$X$XH.#.K d.c.d.G +                             ",
"                                      + u x + ; -._.@XI.K.S.#.s.>Xx.G +                             ",
"                                      + + $ : e.C ( P.0 ; -.K.#.d.e.v +                             ",
"                                      + + w f.r % r U h.>Xp.%.U.#.G.=.+                             ",
"                                        + r l.w # r g.m.4Xx.2 %.G.,.Y                               ",
"                                        z Z s.: 4 y g.N.,Xu.: y 4.Y                                 ",
"                                  8 Q _ ,.*.< + T @.g.N.B.I J b.e                                   ",
"                              $ R H.u M G.U.=.< - y g.N.B.N.n.b.                                    ",
"                            * } J.).E.B _ K.I.7 p N H M.L h.B.M.Z                                   ",
"                            ( J.|. XOXB n S.H.7 Y / C j.I j.n.I w                                   ",
"                      + 6 x H.(./.OX].g b 1.' u %.C.;.L k.k.L *         D ; q t                     ",
"                    $ p *.R.,.| 9.[...2 p Y < R H.@XR.%.^ h ; $       S :XS u.-X3                   ",
"                    + p %.G.U.3. ...6 + + 7 R _ 2.I.`.2.p O.^.v.u + + q -XZ a.2X;Xq                 ",
"                    + p %.*.H.,.7.=X&X&Xw.0 D. .} ,.C.=.$.Q.OX].0 f Y ^ =XC y.1X1Xq                 ",
"                      u n ' =.6.XX3X3X2Xu.g /.D.9...n n D.].oXoXB -.C.5.-Xy.r.*X:Xq                 ",
"                        4 Q _ .X<X3X3X<Xt.d Q.{.].$.+ + ( D.].].:.H.H.5.=X1Xu.D a.9                 ",
"                          , R .X<X3X3X3Xu.4  .&.&.m +   + Q 3.&.2.C.C.<.;.=X-Xu.9                   ",
"                            4 i.<X3X3X1Xp.! <.K.S.R +     * u u ' %.%._ 7 C S A                     ",
"                              w.&X1X1Xa.#.%.S.+XG.:.o.+     $ * p a a p * + $                       ",
"                              + S &X%X+.R *.3.I.A.E.{.V         % + + +                             ",
"                              + + ; 0 W.~.<._ | E.}.OX XV +                                         ",
"                              + p >.^.oX~.%.8 *.!.[.}.OX^.] + +                                     ",
"                            + u Q &.[ ^.0.i   f >.~.{.}.O.E Q j $                                   ",
"                            4 Y | | l O.B +   + x >.!.8.g ( A.1.<                                   ",
"                          < Q ' -.S.S.p + +     # a | 6 Y ,.K._.a                                   ",
"                        , ~ ` =.H.@X@Xx %           2 Q ` S.@X`.%.8 *                               ",
"                    $ 9 R ` ` G.+X$X@Xx +           - ( ` G.$X+XC.p +                               ",
"                    + p ' ' *.I.$X@XI.a $           - ( ` G.$X@XU.n +                               ",
"                    2 x ' ' 3.Y.$X`.%.6             - ( ` A.`.$X$XQ +                               ",
"                  + v ~ ~ ( 2.U.$XI.<               - ( ` *.G.+X_.M %                               ",
"                + + * - - 2 =.R._.2.<               - ( ` ' *.C.a - + +                             ",
"              6 b b b b n ~ j ,.1.a                 - ( ' ' ! f ! ,.,.R $                           ",
"            6 x ' ' %.1.S.H.R Y a +               % p j k j j M G.+X`.S.M *                         ",
"          3 n ' ' | C.U.$X#XH.Y = +             % u ! 4 - - f 3._.@X$X+XG.x *                       ",
"        + n ( ( ' <.I.`.+X+X`.3.a +             % u ( ~ ~ ~ ~ ' 1.U.+X+X_.A.j +                     ",
"        + - , < < 7 p f a a f 7 = +             % + 2 < 2 < < < 6 p f f a u - +                     ",
"                                                                                                    ",
"                                                                                                    ",
"                                                                                                    "
};
