/* XPM */
static char *_4a4587ec5f84b56fdb73198aa42ec00zJILTJLO3lIDrrh0[] = {
/* columns rows colors chars-per-pixel */
"48 48 172 2 ",
"   c None",
".  c black",
"X  c #000005",
"o  c #01000B",
"O  c #020010",
"+  c #030014",
"@  c #050019",
"#  c #06001E",
"$  c #080024",
"%  c #090029",
"&  c #0A002D",
"*  c #0D0032",
"=  c #0C0035",
"-  c #0D0039",
";  c #0E003E",
":  c #0F0042",
">  c #140044",
",  c #100048",
"<  c #12004E",
"1  c #18004C",
"2  c #130056",
"3  c #190051",
"4  c #13005B",
"5  c #15005E",
"6  c #1C005B",
"7  c #24005F",
"8  c #140064",
"9  c #1B0062",
"0  c #1C0069",
"q  c #1C006F",
"w  c #140073",
"e  c #1B0077",
"r  c #18007B",
"t  c #1D007E",
"y  c #24006B",
"u  c #29006A",
"i  c #31006A",
"p  c #200071",
"a  c #240075",
"s  c #300073",
"d  c #32007A",
"f  c #170082",
"g  c #17008A",
"h  c #18008F",
"j  c #1F008C",
"k  c #190094",
"l  c #1A009A",
"z  c #210081",
"x  c #2A0080",
"c  c #280087",
"v  c #300087",
"b  c #3F0089",
"n  c #250092",
"m  c #26009A",
"M  c #2B009E",
"N  c #300093",
"B  c #3E0093",
"V  c #3D0096",
"C  c #32009A",
"Z  c #39009F",
"A  c #1900A2",
"S  c #1500AB",
"D  c #1500B5",
"F  c #2F00A5",
"G  c #2100AD",
"H  c #3800A4",
"J  c #3100AF",
"K  c #3D00AF",
"L  c #2A00B5",
"P  c #2000BA",
"I  c #3400BA",
"U  c #460093",
"Y  c #4500A3",
"T  c #4A00A5",
"R  c #4000A9",
"E  c #4E00AB",
"W  c #5300A5",
"Q  c #5600AD",
"!  c #5F00AA",
"~  c #4300B7",
"^  c #4E00BA",
"/  c #5600BF",
"(  c #5D00BA",
")  c #6700BC",
"_  c #1300C0",
"`  c #1900C3",
"'  c #1700CB",
"]  c #1200CC",
"[  c #0300D1",
"{  c #0400D3",
"}  c #0500D4",
"|  c #0700D5",
" . c #0B00D1",
".. c #0D00D2",
"X. c #0900D7",
"o. c #0D00D4",
"O. c #0C00D9",
"+. c #1000D6",
"@. c #1300D7",
"#. c #1700D6",
"$. c #1B00D4",
"%. c #1900D7",
"&. c #1D00D7",
"*. c #1300D9",
"=. c #1A00D8",
"-. c #1A00D9",
";. c #2400C6",
":. c #2C00CE",
">. c #3200C6",
",. c #3E00C0",
"<. c #3B00C4",
"1. c #3900CF",
"2. c #2100D1",
"3. c #2600D5",
"4. c #2500D7",
"5. c #2E00D2",
"6. c #2800D4",
"7. c #2C00D7",
"8. c #2200D8",
"9. c #2600D9",
"0. c #3400D3",
"q. c #3000D5",
"w. c #3300D6",
"e. c #3400D6",
"r. c #3600D7",
"t. c #3800D2",
"y. c #3D00D5",
"u. c #3C00D6",
"i. c #3B00D8",
"p. c #4A00C2",
"a. c #4A00CD",
"s. c #5200CA",
"d. c #5A00C9",
"f. c #4600D2",
"g. c #4700D2",
"h. c #4600D6",
"j. c #4B00D5",
"k. c #4F00D4",
"l. c #4100D8",
"z. c #4400D9",
"x. c #4900D9",
"c. c #4C00D9",
"v. c #5000D2",
"b. c #5300D3",
"n. c #5700D1",
"m. c #5400D4",
"M. c #5400D6",
"N. c #5700D7",
"B. c #5A00D5",
"V. c #5100D8",
"C. c #5600D9",
"Z. c #5B00D8",
"A. c #6500CA",
"S. c #7500CC",
"D. c #6600D2",
"F. c #6700D7",
"G. c #6B00D3",
"H. c #6C00D2",
"J. c #6A00D4",
"K. c #6D00D4",
"L. c #6C00D6",
"P. c #6F00D7",
"I. c #6100D8",
"U. c #6800D8",
"Y. c #6B00D9",
"T. c #6F00D9",
"R. c #6D00DA",
"E. c #7000D3",
"W. c #7400D6",
"Q. c #7900D7",
"!. c #7A00D7",
"~. c #7E00D7",
/* pixels */
"                                                                                                ",
"                                                                                                ",
"                                                                                                ",
"                                                                                                ",
"                                                                                                ",
"                                                g.b.b.                                          ",
"                                                g.k.U.R.P.E.                                    ",
"                                                  g.B.R.Q.~.Q.E.                                ",
"                                   .o.#.$.6.6.0.t.g.v.U.P.S.Q.~.W.                              ",
"                               .[ ..#.-.4.4.e.e.i.j.V.J.A.) ) S.Q.Q.H.                          ",
"                            [  .  ..#.-.&.7.e.e.z.x.C.I.D.( ! ) S.Q.Q.H.                        ",
"                          ..$.#.-.-.$.;.;.:.q.>.,.g.k.b.B.A.) W ) R.R.F.                        ",
"                          6.8.4.$.4.2.G k n m F F K ~ p.d.d.d.Q Q D.I.C.B.                      ",
"                        5.q.9.:.D G G g e t e c N C Z Z B Y ^ / T d.B.Z.j.g.                    ",
"                      u.e.7.e.:.L D A n t t t z z x a u d V H p.Y ^ M.j.u.u.                    ",
"                  g.h.u.u.i.i.I M n a e q 0 5 0 q 0 6 6 y v V K Z R a.l.u.q.5.                  ",
"                  k.v.i.l.<.J m m j r 5 < < , < 2 1 3 6 6 y c v d N I 0.q.5.6.                  ",
"                v.v.x.v.I C N c z y 5 < : : - ; > = > 3 1 3 a a p n F >.7.4.$.                  ",
"              b.Z.j.Z.a.~ C c 0 6 1 , > : - & % & % & ; : > 0 e 9 z n P 8.&.$.                  ",
"              B.C.V.b.a.Z v y 9 0 2 : * & & # @ # # # & % * 4 0 5 r h P $.*.$.                  ",
"              Z.C.B.a.R N d a y 9 3 ; & # @ + O + + @ # # - < 2 4 f k P *.*.} ..                ",
"            v.V.V.b.K H K N f e < * $ @ + O O o o o + + @ = ; < 4 g k S ' *.O.} [               ",
"            j.x.g.~ H ,.I N z 2 : = $ @ + o X X X o O O @ % - , 8 f h S D ] O.} [               ",
"            u.g.,.H I I F n q < < ; % # O o X . . X o + # & : , 5 w k S D ] O.[  .              ",
"            i.1.J J >.I m z 0 5 2 - # @ O o X . . X o O # * ; : < w h A D *.X.  {               ",
"            7.:.L L q.;.m t 5 4 < = % # + o X X X X o O # & ; , 8 e f g _ *.X.{ {               ",
"            &.2.D P 2.2.P l w 8 2 : - $ + O O o o o + @ $ * : < 8 t r g D *.X.} [               ",
"            -.2.' -.$.*.` A g r 8 2 ; & $ # + O + + + $ * > 3 9 e t t l ] -.O.}                 ",
"            @.@.$.*.O.*.' S k f w 2 : - * & @ + + # $ $ * > 6 a c z n ;.4.&.O.o.                ",
"            } *.X.} } O.] S l f r 4 , : ; - % % # % * - > 1 0 x c m L :.9.9.#.                  ",
"            { O.} [ o.O.@.` A e f q 5 > > : - ; * & > 3 6 3 u a M F I e.q.9. .                  ",
"              } {   { *.@.@.D f t t p 6 6 1 1 3 3 > > 1 7 u u N K p.e.l.7.6.                    ",
"              ..{     @.$.-.;.k e z c a a 7 3 7 u u u u s s d R p.g.l.u.0.                      ",
"                      o.-.&.9.L F C Z N v v u 7 u s d b B V V ~ b.c.x.u.0.t.5.5.                ",
"                        &.7.7.t.1.~ K R V V b d i s b T T E ^ s.b.k.V.x.u.u.u.5.                ",
"                        6.7.7.i.z.a.~ ^ ^ E U U U b b E / d.d.d.^ ^ s.b.c.l.u.                  ",
"                          6.0.t.h.V.b.b.I.I.( W W Q Q W W W W E E ^ s.M.V.j.                    ",
"                            q.  g.M.C.I.R.U.U.D.A.A.H.J.A.A.( ( / d.Z.B.g.                      ",
"                              g.g.b.B.H.B.F.J.J.P.U.U.R.P.R.T.J.D.U.B.                          ",
"                                  n.n.b.  P.P.J.J.J.P.P.J.U.R.F.J.                              ",
"                                              P.J.P.J.W.W.J.E.                                  ",
"                                                                                                ",
"                                                                                                ",
"                                                                                                ",
"                                                                                                ",
"                                                                                                ",
"                                                                                                ",
"                                                                                                "
};
