/* XPM */
static char *result[] = {
/* columns rows colors chars-per-pixel */
"48 48 213 2 ",
"   c #7D6F4D",
".  c #7E725A",
"X  c #7F7F73",
"o  c #957637",
"O  c #A07B2F",
"+  c #937440",
"@  c #807355",
"#  c #8C7855",
"$  c #8A795A",
"%  c #8C764D",
"&  c #807963",
"*  c #AA812C",
"=  c #B0812E",
"-  c #B5892D",
";  c #BE922E",
":  c #AA863F",
">  c #BD8935",
",  c #B98736",
"<  c #B79636",
"1  c #C98215",
"2  c #C6831B",
"3  c #CA851C",
"4  c #C9861A",
"5  c #D38816",
"6  c #D48A1B",
"7  c #C68624",
"8  c #CB8621",
"9  c #C58C26",
"0  c #CC8A23",
"q  c #C58A2B",
"w  c #CC8C2A",
"e  c #D48D23",
"r  c #D08F2E",
"t  c #CB932E",
"y  c #D49226",
"u  c #D5922C",
"i  c #D9962E",
"p  c #D69A2F",
"a  c #C28933",
"s  c #CA8D33",
"d  c #C28C3B",
"f  c #CD9133",
"g  c #C59339",
"h  c #CC923B",
"j  c #C39934",
"k  c #D19435",
"l  c #D29A32",
"z  c #D2963C",
"x  c #D49B3C",
"c  c #DB9D3A",
"v  c #DA9931",
"b  c #CFA332",
"n  c #D5A23D",
"m  c #D9A13D",
"M  c #D3AB3B",
"N  c #D5A433",
"B  c #DAB13E",
"V  c #9D844E",
"C  c #8F805C",
"Z  c #9D8A54",
"A  c #9A8757",
"S  c #A2854B",
"D  c #AE8949",
"F  c #A28645",
"G  c #A6904C",
"H  c #BA9B45",
"J  c #A38B53",
"K  c #A39354",
"L  c #AB9856",
"P  c #A6955B",
"I  c #B19756",
"U  c #85806D",
"Y  c #9D956B",
"T  c #898878",
"R  c #928E7F",
"E  c #989274",
"W  c #948D68",
"Q  c #A59768",
"!  c #A19B72",
"~  c #A29F7E",
"^  c #BEB86C",
"/  c #B4A97A",
"(  c #ABA279",
")  c #C69242",
"_  c #CD9643",
"`  c #CD9C46",
"'  c #CB9A4C",
"]  c #CA9649",
"[  c #D49C45",
"{  c #D29D4B",
"}  c #CB9C53",
"|  c #D19E52",
" . c #D3A343",
".. c #DCA344",
"X. c #D5AC46",
"o. c #D6A44B",
"O. c #DAA34B",
"+. c #D8A84C",
"@. c #D8B546",
"#. c #DABA4C",
"$. c #DAB44A",
"%. c #CAA757",
"&. c #D5A255",
"*. c #DAA553",
"=. c #DDAC57",
"-. c #D3A45B",
";. c #D9A758",
":. c #DCA95C",
">. c #CBB654",
",. c #D9B658",
"<. c #E1A64C",
"1. c #E5AC4B",
"2. c #E6A843",
"3. c #E2AC54",
"4. c #E1AD5D",
"5. c #E3B456",
"6. c #E7B45A",
"7. c #D6AA65",
"8. c #DCAC63",
"9. c #D8AC6A",
"0. c #C8B964",
"q. c #DDB26D",
"w. c #D1BE6E",
"e. c #DCB374",
"r. c #DEB67A",
"t. c #DCB87F",
"y. c #E1AE61",
"u. c #E2B266",
"i. c #E3B36B",
"p. c #E2B96B",
"a. c #E8B868",
"s. c #F8BE62",
"d. c #E3B673",
"f. c #E6BA75",
"g. c #EBBC75",
"h. c #E4BA79",
"j. c #EBBD7A",
"k. c #D9C55B",
"l. c #E1C75A",
"z. c #DBC76A",
"x. c #C8C072",
"c. c #DBD072",
"v. c #E1C265",
"b. c #E4C76C",
"n. c #F9C066",
"m. c #EDC17D",
"M. c #E5C978",
"N. c #F4C379",
"B. c #E9D677",
"V. c #E6D56C",
"C. c #948F81",
"Z. c #999584",
"A. c #A19E89",
"S. c #B1A991",
"D. c #BBB296",
"F. c #C6BA85",
"G. c #E3BD82",
"H. c #E6C086",
"J. c #ECC384",
"K. c #E7C38C",
"L. c #EBC68C",
"P. c #EACB86",
"I. c #F1C684",
"U. c #F1C78A",
"Y. c #F2C98B",
"T. c #FACE8B",
"R. c #F8CB87",
"E. c #FAD08F",
"W. c #E6C593",
"Q. c #E9C691",
"!. c #EBC994",
"~. c #ECCC9B",
"^. c #F3CD94",
"/. c #F2CF99",
"(. c #F5D096",
"). c #F9D193",
"_. c #F5D19C",
"`. c #F9D49D",
"'. c #DFD9A0",
"]. c #ECCEA1",
"[. c #E9CFA9",
"{. c #EDD0A4",
"}. c #EDD8A9",
"|. c #F3D4A4",
" X c #FAD7A4",
".X c #FAD8A5",
"XX c #F4D6AA",
"oX c #F7D9AD",
"OX c #FBDAAA",
"+X c #EEDAB8",
"@X c #F4DAB3",
"#X c #FADEB3",
"$X c #F5DEBB",
"%X c #F9DFBB",
"&X c #EDE4B4",
"*X c #FAE1BC",
"=X c #F8E0BA",
"-X c #EFDFC4",
";X c #F4DFC0",
":X c #F5E1C2",
">X c #FAE5C4",
",X c #F4E4CC",
"<X c #F9E6CA",
"1X c #FBE8CD",
"2X c #F3E6D1",
"3X c #F4E9D6",
"4X c #F9EAD4",
"5X c #FBEFDD",
"6X c #F4EADC",
"7X c #FBF0DF",
"8X c #FBF1E3",
"9X c #FCF5EA",
"0X c None",
/* pixels */
"0X0X0X0X0X0X0X0X0X0X0X0X0X0X0X0X0X0X0X0X0X0X0X0X0X0X0X0X0X0X0X0X0X0X0X0X0X0X0X0X0X0X0X0X0X0X0X0X",
"0X0X0X0X0X0X0X0X0X0X0X0X0X0X0X0X0X0X0X0X0X0X0X0X0X0X0X0X0X0X0X0X0X0X0X0X0X0X0X0X0X0X0X0X0X0X0X0X",
"0X0X0X0X0X0X0X0X0X0X0X0X0X0X0X0X0X0X0X0X0X0X0X0X0X0X0X0X0X0X0X0X0X0X0X0X0X0X0X0X0X0X0X0X0X0X0X0X",
"0X0X0X0X0X0X0X0X0X0X0X0X0X0X0X0X0X0X0X0X0X0X0X0X0X0X0X0X0X0X0X0X0X0X0X0X0X0X0X0X0X0X0X0X0X0X0X0X",
"0X0X0X0X0X0X0X0X0X0X0X0X0X0X0X0X0X0X0X0X0X0X0X0X0X0X0X0X0X0X0X0X0X0X0X0X0X0X0X0X0X0X0X0X0X0X0X0X",
"0X0X0X0X0X0X0X0X0X0X0X0X0X0X0X0X0X0X0X0X0X0X0X0X0X0X0X0X0X0X0X0X0X0X0X0X0X0X0X0X0X0X0X0X0X0X0X0X",
"0X0X0X0X0X0X0X0X0X0X0X0X0X0X0X0X0X0X0X0X0X0X0X0X0X0X0X0X0X0X0X0X0X0X0X0X0X0X0X0X0X0X0X0X0X0X0X0X",
"0X0X0X0X0X0X0X0X0X0X0X0X0X0X0X0X0X0X0X0X0X0X0X0X0X0X0X0X0X0X0X0X0X0X0X0X0X0X0X0X0X0X0X0X0X0X0X0X",
"0X0X0X0X0X0X0X0X0X0X0X0X0X0X0X0X0X0X0X0X0X0X0X0X0X0X0X0X0X0X0X0X0X0X0X0X0X0X0X0X0X0X0X0X0X0X0X0X",
"0X0X0X0X0X0X0X0X0X0X0X0X0X0X0X0X0X& Z L I Q Q Q Q Q L G F A & 0X0X0X0X0X0X0X0X0X0X0X0X0X0X0X0X0X",
"0X0X0X0X0X0X0X0X0X0X0X0X0X0X0X$ I ` ..n x l z _ [ [ o.+.n b < P U 0X0X0X0X0X0X0X0X0X0X0X0X0X0X0X",
"0X0X0X0X0X0X0X0X0X0X0X0X0X0XJ g v i e 6 5 5 6 e e k O.4.i.8.X.M %.E 0X0X0X0X0X0X0X0X0X0X0X0X0X0X",
"0X0X0X0X0X0X0X0X0X0X0X0X0XD y v y 6 6 6 5 5 e <.c k *.u.m.P.g.=.@.>.! 0X0X0X0X0X0X0X0X0X0X0X0X0X",
"0X0X0X0X0X0X0X0X0X0X0X0XD y c c i e 6 6 5 5 u a.3.z 3.a.J.J.j.i.=.@.>.! 0X0X0X0X0X0X0X0X0X0X0X0X",
"0X0X0X0X0X0X0X0X0X0X0XS w 2.<.<.c i v c <.<.y.Y.j.:.a.j.J.m.d.i.:.o.#.x.W 0X0X0X0X0X0X0X0X0X0X0X",
"0X0X0X0X0X0X0X0X0X0X# 9 ..a.a.3.<.3.f.XX$X%X@X@XXX^.Y.Y.J.f.i.:.*.{  .k.^ 0X0X0X0X0X0X0X0X0X0X0X",
"0X0X0X0X0X0X0X0X0X0X, c j.N.g.a.u.Q.4X9X7X4X1X>X%XoX|.^.U.f.:.*.{ _ h  .z.Y 0X0X0X0X0X0X0X0X0X0X",
"0X0X0X0X0X0X0X0X0X# u g.^.).I.g.N.>X9X8X7X4X;X;X$X%XoXXX_.I.:.[ h h 7 q B ^ 0X0X0X0X0X0X0X0X0X0X",
"0X0X0X0X0X0X0X0X0X: 1.^.OX X(.I.).>X5X5X7X].8.].!.~.$X$X X_.i.h s 7 7 7 l k.W 0X0X0X0X0X0X0X0X0X",
"0X0X0X0X0X0X0X0X. g a._. X X X|.(.OX*X4X4X8.u !.G.h.XXXX{.~.i.a 7 2 2 1 4 B L 0X0X0X0X0X0X0X0X0X",
"0X0X0X0X0X0X0X0XC ..g.U.^._.`. X).E. X=X>Xg.c ~.Q.d.q.7.| ] h 2 1 1 1 1 4 N H 0X0X0X0X0X0X0X0X0X",
"0X0X0X0X0X0X0X0XV 5.p.h.j.j.I.Y.Y.R.T.`.#XOXJ.@X~.i.{ s 7 2 1 1 1 3 8 8 0 b H 0X0X0X0X0X0X0X0X0X",
"0X0X0X0X0X0X0X0XV 5.4.y.a.i.u.d.f.j.T.T.).OX%X<X;XQ.| w 2 1 2 8 8 0 w w w l ; @ 0X0X0X0X0X0X0X0X",
"0X0X0X0X0X0X0X0XG 6.O.O.[ O.O.*.*.4.G.T.T.). X%X<X1X+XW.;.h k s s f k f k x j @ 0X0X0X0X0X0X0X0X",
"0X0X0X0X0X0X0X0XP 6.n f k s u u r r z y.j.I.Y._.@X;X3X3X;XW.7.{ [ [ [ { [ [ ;   0X0X0X0X0X0X0X0X",
"0X0X0X0X0X0X0X0X! M.[ 0 3 3 3 1 1 1 1 7 k ;.f.I.^.|.$X2X6X6X[.e.7.;.*.*.&.O.- 0X0X0X0X0X0X0X0X0X",
"0X0X0X0X0X0X0X0X~ }.=.4 1 1 1 1 1 1 2 7 h | e.G.i.h.].@X,X6X2XW.e.i.i.8.8.+.* 0X0X0X0X0X0X0X0X0X",
"0X0X0X0X0X0X0X0XA.&Xq.4 1 1 1 1 r [ | 7.e.G.G.G.| ) h./.@X;X,X].J.j.h.d.i.+.O 0X0X0X0X0X0X0X0X0X",
"0X0X0X0X0X0X0X0XR }.q.4 1 2 2 8 [ Y.|.oX$X~.G.G.-.> i.J.^.XX+X~.L.L.J.J.f. .o 0X0X0X0X0X0X0X0X0X",
"0X0X0X0X0X0X0X0X0XF.z.0 2 7 7 q [ N.`.#X>X$XW.~.9.%.J.U.J.^.~.h.J.L.Q.!.f.9 % 0X0X0X0X0X0X0X0X0X",
"0X0X0X0X0X0X0X0X0X( v.x q q s _ [ 1.s.).oX*X$X$X[.~.|.^.Y.J.d.9.r.h.J.U.5.O 0X0X0X0X0X0X0X0X0X0X",
"0X0X0X0X0X0X0X0X0XR 0.+.s h _ | ;.3.1.s.T..X%X:X;X;XoXXX~.d.-.7.e.h.h.a.k o 0X0X0X0X0X0X0X0X0X0X",
"0X0X0X0X0X0X0X0X0X0X/ X. .] | -.9.d.u.1.6.N._.@X=X:X+X].e.} ' -.7.e.q.m = 0X0X0X0X0X0X0X0X0X0X0X",
"0X0X0X0X0X0X0X0X0X0XC.>.b o.-.q.r.H.K.r.:.3.i.U.Q.t.q.} d d ) } } 7.O.9 # 0X0X0X0X0X0X0X0X0X0X0X",
"0X0X0X0X0X0X0X0X0X0X0XS.%.M 8.d.G.K.W.H.r.7.&.6.;.> > , > a d ] | ..9 V 0X0X0X0X0X0X0X0X0X0X0X0X",
"0X0X0X0X0X0X0X0X0X0X0X0XF.>.#.b.K.!.K.G.r.7.-.n z d d a a a g [ x 9 V 0X0X0X0X0X0X0X0X0X0X0X0X0X",
"0X0X0X0X0X0X0X0X0X0X0X0XX D.t.z.V.P.K.G.e.7.-.` ) d d a d _ x l > # 0X0X0X0X0X0X0X0X0X0X0X0X0X0X",
"0X0X0X0X0X0X0X0X0X0X0X0X0X0XA.F.c.V.B.M.M.q.7.-.' ] ` [  .n g F . 0X0X0X0X0X0X0X0X0X0X0X0X0X0X0X",
"0X0X0X0X0X0X0X0X0X0X0X0X0X0X0X0XZ./ x.c.B.z.v.,.,.#.$.X.< S $ 0X0X0X0X0X0X0X0X0X0X0X0X0X0X0X0X0X",
"0X0X0X0X0X0X0X0X0X0X0X0X0X0X0X0X0X0XX E Y Q P K K Z A $ 0X0X0X0X0X0X0X0X0X0X0X0X0X0X0X0X0X0X0X0X",
"0X0X0X0X0X0X0X0X0X0X0X0X0X0X0X0X0X0X0X0X0X0X0X0X0X0X0X0X0X0X0X0X0X0X0X0X0X0X0X0X0X0X0X0X0X0X0X0X",
"0X0X0X0X0X0X0X0X0X0X0X0X0X0X0X0X0X0X0X0X0X0X0X0X0X0X0X0X0X0X0X0X0X0X0X0X0X0X0X0X0X0X0X0X0X0X0X0X",
"0X0X0X0X0X0X0X0X0X0X0X0X0X0X0X0X0X0X0X0X0X0X0X0X0X0X0X0X0X0X0X0X0X0X0X0X0X0X0X0X0X0X0X0X0X0X0X0X",
"0X0X0X0X0X0X0X0X0X0X0X0X0X0X0X0X0X0X0X0X0X0X0X0X0X0X0X0X0X0X0X0X0X0X0X0X0X0X0X0X0X0X0X0X0X0X0X0X",
"0X0X0X0X0X0X0X0X0X0X0X0X0X0X0X0X0X0X0X0X0X0X0X0X0X0X0X0X0X0X0X0X0X0X0X0X0X0X0X0X0X0X0X0X0X0X0X0X",
"0X0X0X0X0X0X0X0X0X0X0X0X0X0X0X0X0X0X0X0X0X0X0X0X0X0X0X0X0X0X0X0X0X0X0X0X0X0X0X0X0X0X0X0X0X0X0X0X",
"0X0X0X0X0X0X0X0X0X0X0X0X0X0X0X0X0X0X0X0X0X0X0X0X0X0X0X0X0X0X0X0X0X0X0X0X0X0X0X0X0X0X0X0X0X0X0X0X",
"0X0X0X0X0X0X0X0X0X0X0X0X0X0X0X0X0X0X0X0X0X0X0X0X0X0X0X0X0X0X0X0X0X0X0X0X0X0X0X0X0X0X0X0X0X0X0X0X"
};
