/* XPM */
static char *result[] = {
/* columns rows colors chars-per-pixel */
"48 48 228 2 ",
"   c #121211",
".  c #131211",
"X  c #131313",
"o  c #141412",
"O  c #121314",
"+  c #131417",
"@  c #161616",
"#  c #181717",
"$  c #131418",
"%  c #141518",
"&  c #18191B",
"*  c #1A1A1D",
"=  c #191C1F",
"-  c #141820",
";  c #151822",
":  c #171A23",
">  c #151826",
",  c #1A1D27",
"<  c #111A28",
"1  c #141C2A",
"2  c #111C2F",
"3  c #161B31",
"4  c #151D34",
"5  c #191F30",
"6  c #191D35",
"7  c #111F3E",
"8  c #141F3E",
"9  c #1A2136",
"0  c #13203C",
"q  c #10203E",
"w  c #13213F",
"e  c #18203E",
"r  c #1D2A38",
"t  c gray15",
"y  c #26282B",
"u  c #242A2D",
"i  c #2C2C2C",
"p  c #21303E",
"a  c #22323F",
"s  c #353536",
"d  c #3A3B3D",
"f  c #101D44",
"g  c #0F2346",
"h  c #0E204E",
"j  c #122241",
"k  c #112047",
"l  c #102547",
"z  c #182D45",
"x  c #12234D",
"c  c #192348",
"v  c #142E4C",
"b  c #1E3046",
"n  c #0E265A",
"m  c #192450",
"M  c #1B2554",
"N  c #152E50",
"B  c #10275E",
"V  c #15275D",
"C  c #1D275A",
"Z  c #132A59",
"A  c #153358",
"S  c #1E345D",
"D  c #263C4F",
"F  c #383A41",
"G  c #252C50",
"H  c #0C266C",
"J  c #1A2863",
"K  c #102B68",
"L  c #102D69",
"P  c #0F3262",
"I  c #0E3760",
"U  c #0E3869",
"Y  c #103967",
"T  c #18326F",
"R  c #0F2B72",
"E  c #0A2A7E",
"W  c #0D2E7C",
"Q  c #1D2B72",
"!  c #1F2D7A",
"~  c #0D3E70",
"^  c #0E317E",
"/  c #113573",
"(  c #203875",
")  c #26405C",
"_  c #2C465D",
"`  c #294858",
"'  c #0D407F",
"]  c #1D4371",
"[  c #1D417E",
"{  c #224369",
"}  c #2B4A68",
"|  c #3A5963",
" . c #204774",
".. c #264A73",
"X. c #244B7C",
"o. c #30577E",
"O. c #4F5154",
"+. c #525869",
"@. c #4D647D",
"#. c #606061",
"$. c #656565",
"%. c #6D6D6E",
"&. c #7A7A7C",
"*. c #0B2983",
"=. c #0C2C85",
"-. c #0E2E86",
";. c #0F3287",
":. c #0A308B",
">. c #0B328C",
",. c #1C3281",
"<. c #18308A",
"1. c #0D2E91",
"2. c #0C349C",
"3. c #1B3291",
"4. c #133D9E",
"5. c #0835A5",
"6. c #0F38AA",
"7. c #0A39B4",
"8. c #073BBE",
"9. c #0B408D",
"0. c #1C498A",
"q. c #0D518F",
"w. c #104096",
"e. c #0B539D",
"r. c #235087",
"t. c #265184",
"y. c #2B588F",
"u. c #335D88",
"i. c #204497",
"p. c #254A94",
"a. c #26599B",
"s. c #356389",
"d. c #336699",
"f. c #37689C",
"g. c #0642A1",
"h. c #0A44AB",
"j. c #1945A8",
"k. c #154CAB",
"l. c #0757A6",
"z. c #0844B5",
"x. c #074BBC",
"c. c #0A4FB8",
"v. c #1847BA",
"b. c #0855B7",
"n. c #065DB4",
"m. c #2551AD",
"M. c #0760BD",
"N. c #2965AE",
"B. c #3965A7",
"V. c #3B74A7",
"C. c #3370B6",
"Z. c #41748D",
"A. c #407BAB",
"S. c #407CB1",
"D. c #407BBD",
"F. c #0B44C6",
"G. c #0548C2",
"H. c #064BC7",
"J. c #0441CF",
"K. c #0557C2",
"L. c #0451CC",
"P. c #0347D7",
"I. c #0644DA",
"U. c #054FD8",
"Y. c #035CD2",
"T. c #0866C1",
"R. c #0560C8",
"E. c #0567CB",
"W. c #046DD2",
"Q. c #0769D5",
"!. c #0568D8",
"~. c #026ADF",
"^. c #0271DD",
"/. c #376CC4",
"(. c #0449E1",
"). c #0352E1",
"_. c #0258E1",
"`. c #025DE5",
"'. c #0253E9",
"]. c #0163E4",
"[. c #0160EB",
"{. c #026AEB",
"}. c #0272E4",
"|. c #0170EF",
" X c #017BED",
".X c #0064F2",
"XX c #016AF1",
"oX c #0066FA",
"OX c #0071F6",
"+X c #0077F4",
"@X c #0278F0",
"#X c #007DF5",
"$X c #0076FB",
"%X c #0071FD",
"&X c #007EF8",
"*X c #4D8394",
"=X c #4E8AA6",
"-X c #4582B9",
";X c #559BB4",
":X c #0082FA",
">X c #0081FC",
",X c #0081FF",
"<X c #498AC3",
"1X c #4285CA",
"2X c #4E96CB",
"3X c #5197C0",
"4X c #498DD4",
"5X c #4C96D9",
"6X c #54A1CF",
"7X c #5FAFD7",
"8X c #62B1CF",
"9X c #69BCD0",
"0X c #5AABE4",
"qX c #61B5E2",
"wX c #64BDEE",
"eX c #6DC4DF",
"rX c #6CC7EC",
"tX c #75D3EB",
"yX c #6CCAF6",
"uX c #73D3F4",
"iX c #969798",
"pX c #8892B4",
"aX c #9AA1BE",
"sX c #A1A2A8",
"dX c #B1B1B6",
"fX c gray75",
"gX c #D6D6D8",
"hX c None",
/* pixels */
"hXhXhXhXhXhXhXhXhXhXhXhXhXhXhXhXhXhXhXhXhXhX< D b hXhXhXhXhXhXhXhXhXhXhXhXhXhXhXhXhXhXhXhXhXhXhX",
"hXhXhXhXhXhXhXhXhXhXhXhXhXhXhXhXhXhXhXhX2 1 _ <XA.a > < hXi d d i hXhXhXhXhXhXhXhXhXhXhXhXhXhXhX",
"hXhXhXhXhXhXhXhXhXhXhXhXhXhXhXhXhXhXhX7 E L | rX7XD H W d $.iXiX&.d hXhXhXhXhXhXhXhXhXhXhXhXhXhX",
"hXhXhXhXhXhXhXhXhXhXhXhXhXhXhXhXhXhX2 :.H.w.| tX9X` g.H.( %.gXgXdX#.  hXhXhXhXhXhXhXhXhXhXhXhXhX",
"hXhXhXhXhXhXhXhXhXhXhXhXhXhXhXhXhXhXl L.|.q.| tX9X` l.OXh.F sXaXpX+.  hXhXhXhXhXhXhXhXhXhXhXhXhX",
"hXhXhXhXhXhXhXhXhXhXhXhXhXhXhXhXhXhXK !. Xq.| tX9X` l.&XM.S +.i.4.T 3 hXhXhXhXhXhXhXhXhXhXhXhXhX",
"hXhXhXhXhXhXhXhXhXhXhXhXhXhXhXhXhXl J.OX Xq.| rX8X` l.,X{.7.m 8.[.b.K O hXhXhXhXhXhXhXhXhXhXhXhX",
"hXhXhXhXhXhXhXhXhXhXhXhXhXhXhXhXhXx (.$X Xe.{ 2X-X{ n.,XXX8.k 6..X`.1.% hXhXhXhXhXhXhXhXhXhXhXhX",
"hXhXhXhXhXhXhXhXhXhXhXhXhXhXhXhXhXk J.OX#XY.w...X.h.~.>X{.7.4 Z b.`.5.% hXhXhXhXhXhXhXhXhXhXhXhX",
"hXhXhXhXhXhXhXhXhXhXhXhXhXhXhXhX- 9 ;.~.>XOXY.q.e.].$X#X!.<., = Y z.2.% hXhXhXhXhXhXhXhXhXhXhXhX",
"hXhXhXhXhXhXhXhXhXhXhXhXhXhXhX+ y s r K.$X:X:X>X>X:X&X|.c.G F y ` r.R % hXhXhXhXhXhXhXhXhXhXhXhX",
"hXhXhXhXhXhXhXhXhXhXhXhXhXhXhX* s O.9 2.].:X&X&X#X#X|.U.1.y O.| ;X=Xp o hXhXhXhXhXhXhXhXhXhXhXhX",
"hXhXhXhXhXhXhXhXhXhXhXhXhXhXt s s = & 0 b.$XOX|.W.E.G.2.J e p -X0X3Xo.$ hXhXhXhXhXhXhXhXhXhXhXhX",
"hXhXhXhXhXhXhXhXhXhXhXhXhXt #.iX&.& # 4 2.P.J.z.L P V m V >.A V.C. .7 hXhXhXhXhXhXhXhXhXhXhXhXhX",
"hXhXhXhXhXhXhXhXhXhXhXhXhXu &.fXiX5 4 m L R R ^ 5.6.5.;.J / e.{ b 2 hXhXhXhXhXhXhXhXhXhXhXhXhXhX",
"hXhXhXhXhXhXhXhXhXhXhXhXhXu +.&.@.9.;.V R 9.q.l..XoXoXU.;.v R.j . hXhXhXhXhXhXhXhXhXhXhXhXhXhXhX",
"hXhXhXhXhXhXhXhXhXhXhXhXhXU L k Y [.U.Z 2.oX>X#X#X X@X`.5.v c.g hXhXhXhXhXhXhXhXhXhXhXhXhXhXhXhX",
"hXhXhXhXhXhXhXhXhXhXhXhXq K.H.,.[ G.E.A >.'.{.Q.Q.T.M.x.1.e :.q hXhXhXhXhXhXhXhXhXhXhXhXhXhXhXhX",
"hXhXhXhXhXhXhXhXhXhXhXhX3 4.0.Z.S.] l.z M 6.F.i.p.{ v Z M : - hXhXhXhXhXhXhXhXhXhXhXhXhXhXhXhXhX",
"hXhXhXhXhXhXhXhXhXhXhXhX> ) =XeXqXV.z = 9 ( m.C.4X1Xa.A : O hXhXhXhXhXhXhXhXhXhXhXhXhXhXhXhXhXhX",
"hXhXhXhXhXhXhXhXhXhXhXhXu *XeXuXqXS., & A y.-X6X7X5XN.A o hXhXhXhXhXhXhXhXhXhXhXhXhXhXhXhXhXhXhX",
"hXhXhXhXhXhXhXhXhXhXhXhXa 3XqX6XA.} : = v X.s.Z.Z.s.] j . hXhXhXhXhXhXhXhXhXhXhXhXhXhXhXhXhXhXhX",
"hXhXhXhXhXhXhXhXhXhXhXhX2 u.f.t.N   O : 5 M R ~ ~ ~ L j . hXhXhXhXhXhXhXhXhXhXhXhXhXhXhXhXhXhXhX",
"hXhXhXhXhXhXhXhXhXhXhXhXhXO - O O hXhX; M 6.'.#X#X+X).*.  hXhXhXhXhXhXhXhXhXhXhXhXhXhXhXhXhXhXhX",
"hXhXhXhXhXhXhXhXhXhXhXhXhXhXhXhX< 8 : p D i.'.OXOXOXU.-.- hXhXhXhXhXhXhXhXhXhXhXhXhXhXhXhXhXhXhX",
"hXhXhXhXhXhXhXhXhXhXhXhXhXhXhXhXn 2.z V.6X-Xv.(.(.I.v.i. .. hXhXhXhXhXhXhXhXhXhXhXhXhXhXhXhXhXhX",
"hXhXhXhXhXhXhXhXhXhXhXhXhXhXhX< P R.S -XwXqXD.6.2.j./.1Xd.% hXhXhXhXhXhXhXhXhXhXhXhXhXhXhXhXhXhX",
"hXhXhXhXhXhXhXhXhXhXhXhXhXhXhX< Y ~.w.y.S.6X<X[ S B.0XwX=X% hXhXhXhXhXhXhXhXhXhXhXhXhXhXhXhXhXhX",
"hXhXhXhXhXhXhXhXhXhXhXhXhXhXhX< P [.).>./ r.y.S p <XyXtX;XN hXhXhXhXhXhXhXhXhXhXhXhXhXhXhXhXhXhX",
"hXhXhXhXhXhXhXhXhXhXhXhXhXhXhXhXh G.|._./ 5 5 = r <XyXtX6X0.1 hXhXhXhXhXhXhXhXhXhXhXhXhXhXhXhXhX",
"hXhXhXhXhXhXhXhXhXhXhXhXhXhXhXhXhXA }.@Xj.Q M & r D.wXrX2X[ w hXhXhXhXhXhXhXhXhXhXhXhXhXhXhXhXhX",
"hXhXhXhXhXhXhXhXhXhXhXhXhXhXhXhXhXv }.@Xk.! C & 5 a.1X2XV./ 5.h hXhXhXhXhXhXhXhXhXhXhXhXhXhXhXhX",
"hXhXhXhXhXhXhXhXhXhXhXhXhXhXhXhXhXc L.{.k.! C & 5 ( [ ..r.b.J.l hXhXhXhXhXhXhXhXhXhXhXhXhXhXhXhX",
"hXhXhXhXhXhXhXhXhXhXhXhXhXhXhXhXhXe >.H.4.Q C 5 M ! ;.9.n.OXJ.f hXhXhXhXhXhXhXhXhXhXhXhXhXhXhXhX",
"hXhXhXhXhXhXhXhXhXhXhXhXhXhXhXhX7 R R 1.R M m M ,.6.).%X>X|.J.f hXhXhXhXhXhXhXhXhXhXhXhXhXhXhXhX",
"hXhXhXhXhXhXhXhXhXhXhXhXhXhXhX< L '.U.R e 5 e ,.3.I.oX:X&X|.7.8 hXhXhXhXhXhXhXhXhXhXhXhXhXhXhXhX",
"hXhXhXhXhXhXhXhXhXhXhXhXhXhXhX7 ' +X|.F.<.c e ,.3.I.oX:X#XQ.T > hXhXhXhXhXhXhXhXhXhXhXhXhXhXhXhX",
"hXhXhXhXhXhXhXhXhXhXhXhXhXhX+ K x.W.E.w.Q c 9 Q ,.8.Y.^.^.R.w hXhXhXhXhXhXhXhXhXhXhXhXhXhXhXhXhX",
"hXhXhXhXhXhXhXhXhXhXhXhXhXhX$ j K I I 8 6 : , e c L / ' w.h.1 hXhXhXhXhXhXhXhXhXhXhXhXhXhXhXhXhX",
"hXhXhXhXhXhXhXhXhXhXhXhXhXhXhXhXhXhXhXhX+ % 5 m V ^ 9.9.=.H ; hXhXhXhXhXhXhXhXhXhXhXhXhXhXhXhXhX",
"hXhXhXhXhXhXhXhXhXhXhXhXhXhXhXhXhXhXhXhXhX3 M <.7.'.%XOXG.B ; hXhXhXhXhXhXhXhXhXhXhXhXhXhXhXhXhX",
"hXhXhXhXhXhXhXhXhXhXhXhXhXhXhXhXhXhXhXhX* e J Q 7.].+X#XXXH.n hXhXhXhXhXhXhXhXhXhXhXhXhXhXhXhXhX",
"hXhXhXhXhXhXhXhXhXhXhXhXhXhXhXhXhXhXhXhX  & = , 0 5.Y.^.OX|.G.g hXhXhXhXhXhXhXhXhXhXhXhXhXhXhXhX",
"hXhXhXhXhXhXhXhXhXhXhXhXhXhXhXhXhXhXhXhXO @ # # & 4 v 9._.+X!.l hXhXhXhXhXhXhXhXhXhXhXhXhXhXhXhX",
"hXhXhXhXhXhXhXhXhXhXhXhXhXhXhXhXhXhXhXhXhX. @ # # # # 0 >._.Q.l hXhXhXhXhXhXhXhXhXhXhXhXhXhXhXhX",
"hXhXhXhXhXhXhXhXhXhXhXhXhXhXhXhXhXhXhXhXhXhX. @ @ & # # 0 >.x.g hXhXhXhXhXhXhXhXhXhXhXhXhXhXhXhX",
"hXhXhXhXhXhXhXhXhXhXhXhXhXhXhXhXhXhXhXhXhXhXhXO . @ @ @ @ : E 7 hXhXhXhXhXhXhXhXhXhXhXhXhXhXhXhX",
"hXhXhXhXhXhXhXhXhXhXhXhXhXhXhXhXhXhXhXhXhXhXhXhXhX. X X X % O hXhXhXhXhXhXhXhXhXhXhXhXhXhXhXhXhX"
};
