/* XPM */
static char *result[] = {
/* columns rows colors chars-per-pixel */
"48 48 222 2 ",
"   c #1D1B0B",
".  c #1B1816",
"X  c #1B1C1B",
"o  c #1F231E",
"O  c #3B2217",
"+  c #191A21",
"@  c #191B2B",
"#  c #181F32",
"$  c #171E3B",
"%  c #1E242E",
"&  c #1D2434",
"*  c #1D2830",
"=  c #212A29",
"-  c #20292E",
";  c #383428",
":  c #232D35",
">  c #202739",
",  c #20293F",
"<  c #24343A",
"1  c #2E3638",
"2  c #48281F",
"3  c #66220E",
"4  c #493626",
"5  c #723F24",
"6  c #7A5032",
"7  c #111E4B",
"8  c #1B2243",
"9  c #14254E",
"0  c #1B234C",
"q  c #1F2E48",
"w  c #1F294E",
"e  c #1D2B4E",
"r  c #1D324D",
"t  c #1E3A4C",
"y  c #1B2556",
"u  c #122B55",
"i  c #1A2F51",
"p  c #1B2F51",
"a  c #1A2C52",
"s  c #17235C",
"d  c #1D275C",
"f  c #1E3950",
"g  c #133059",
"h  c #16315B",
"j  c #332D45",
"k  c #233846",
"l  c #263B46",
"z  c #2A3D45",
"x  c #373C41",
"c  c #3A3F43",
"v  c #393A4A",
"b  c #2D2F58",
"n  c #203A53",
"m  c #213D5A",
"M  c #323D5D",
"N  c #3C3D5F",
"B  c #0F2F66",
"V  c #152563",
"C  c #1C2864",
"Z  c #1C2967",
"A  c #182A6B",
"S  c #1A2C6B",
"D  c #153065",
"F  c #143868",
"G  c #102770",
"H  c #1C2D73",
"J  c #1A2D7B",
"K  c #0E3A74",
"L  c #0E347B",
"P  c #17307D",
"I  c #1B3F79",
"U  c #59365C",
"Y  c #24424D",
"T  c #2E4448",
"R  c #3D4240",
"E  c #2F4753",
"W  c #0E4177",
"Q  c #0E4476",
"!  c #1B4C7A",
"~  c #20446F",
"^  c #354E63",
"/  c #3C436B",
"(  c #2D506B",
")  c #25557F",
"_  c #30537B",
"`  c #3C6271",
"'  c #464344",
"]  c #4F4C41",
"[  c #474F48",
"{  c #484948",
"}  c #554741",
"|  c #534C51",
" . c #4D575F",
".. c #6B4348",
"X. c #7C5A43",
"o. c #5D605C",
"O. c #465268",
"+. c #424375",
"@. c #50567C",
"#. c #7A4260",
"$. c #6D5567",
"%. c #416C7C",
"&. c #777B77",
"*. c #912D0E",
"=. c #814126",
"-. c #C24521",
";. c #D75D37",
":. c #89664F",
">. c #A17456",
",. c #AE7D5B",
"<. c #BF8362",
"1. c #B58278",
"2. c #D7956B",
"3. c #EBA678",
"4. c #102E86",
"5. c #122E8C",
"6. c #0C3A86",
"7. c #193785",
"8. c #11308F",
"9. c #1A318B",
"0. c #0A3A98",
"q. c #1A3293",
"w. c #113199",
"e. c #203183",
"r. c #0E33A5",
"t. c #1737A3",
"y. c #0B35B1",
"u. c #0B37B8",
"i. c #0C4B86",
"p. c #104882",
"a. c #12448B",
"s. c #0A5398",
"d. c #234D86",
"f. c #2F4D8D",
"g. c #24548C",
"h. c #25568E",
"j. c #385797",
"k. c #3A6086",
"l. c #326395",
"z. c #32689E",
"x. c #0740A0",
"c. c #0C40A8",
"v. c #0C44AE",
"b. c #1C4BA2",
"n. c #0851AB",
"m. c #0746B1",
"M. c #074AB0",
"N. c #0657BC",
"B. c #294AA6",
"V. c #324AA7",
"C. c #2354A1",
"Z. c #2058AD",
"A. c #2865AF",
"S. c #3971A6",
"D. c #3E74A9",
"F. c #397DAF",
"G. c #2A6CBE",
"H. c #396EB2",
"J. c #3674B8",
"K. c #495996",
"L. c #566088",
"P. c #416C98",
"I. c #5B689B",
"U. c #4064A8",
"Y. c #467FAE",
"T. c #4078BD",
"R. c #0A39C6",
"E. c #063AD0",
"W. c #073CD8",
"Q. c #043DE1",
"!. c #013FEE",
"~. c #0B44C0",
"^. c #0C4DC0",
"/. c #0A40CE",
"(. c #0749CD",
"). c #0654C7",
"_. c #044ED9",
"`. c #0457D6",
"'. c #0953DB",
"]. c #0763C3",
"[. c #076DC9",
"{. c #066ADB",
"}. c #024DE7",
"|. c #0040F3",
" X c #005BF4",
".X c #0267EA",
"XX c #0276E3",
"oX c #017AEB",
"OX c #006FF6",
"+X c #0072FD",
"@X c #0078FE",
"#X c #4B8195",
"$X c #7F8291",
"%X c #0081FA",
"&X c #0084FE",
"*X c #4482C2",
"=X c #468CC6",
"-X c #5097C5",
";X c #529CC0",
":X c #5099CF",
">X c #4891DA",
",X c #59ADDA",
"<X c #64B1CB",
"1X c #61B2D6",
"2X c #4D9BEE",
"3X c #4D9FF4",
"4X c #56ACE1",
"5X c #63B9E3",
"6X c #6EC2D5",
"7X c #6DC7F0",
"8X c #6AC8F8",
"9X c #7ADDF5",
"0X c #74D5F9",
"qX c #899391",
"wX c gray62",
"eX c #ADAEB3",
"rX c #BDBCBD",
"tX c #CCAA93",
"yX c #C1ABA3",
"uX c #BFC0C6",
"iX c #E0DFDE",
"pX c None",
/* pixels */
"pXpXpXpXpXpXpXpXpXpXpXpXpXpXpXpXpXpXpXpXpXpXpXpXpXpXpXpXpXpXpXpXpXpXpXpXpXpXpXpXpXpXpXpXpXpXpXpX",
"pXpXpXpXpXpXpXpXpXpXpXpXpXpXpXpXpXpXpXpXpXpXpXpXpXpXpXpXpXpXpXpXpXpXpXpXpXpXpXpXpXpXpXpXpXpXpXpX",
"pXpXpXpXpXpXpXpXpXpXpXpXpXpXpXpXpXpXpXpXpXpXpXpXpXpXpXpXpXpXpXpXpXpXpXpXpXpXpXpXpXpXpXpXpXpXpXpX",
"pXpXpXpXpXpXpXpXpXpXpXpXpXpXpXpXpXpXpXpXpXpXpXpXpXpXpXpXpXpXpXpXpXpXpXpXpXpXpXpXpXpXpXpXpXpXpXpX",
"pXpXpXpXpXpXpXpXpXpXpXpXpXpXpXpXpXpXpXpXpXpXpXpXpXpXpXpXpXpXpXpXpXpXpXpXpXpXpXpXpXpXpXpXpXpXpXpX",
"pXpXpXpXpXpXpXpXpXpXpXpXpXpXpXpXpXpXpXpXpXpXpXpXpXpXpXpXpXpXpXpXpXpXpXpXpXpXpXpXpXpXpXpXpXpXpXpX",
"pXpXpXpXpXpXpXpXpXpXpXpXpXpXpXpXpXpXpXpXpXpXpXpXpXpXpXpXpXpXpXpXpXpXpXpXpXpXpXpXpXpXpXpXpXpXpXpX",
"pXpXpXpXpXpXpXpXpXpXpXpXpXpXpXpXpXpXpXpXpXpXpXpXpXpXpXpXpXpXpXpXpXpXpXpXpXpXpXpXpXpXpXpXpXpXpXpX",
"pXpXpXpXpXpXpXpXpXpXpXpXpXpXpXpXpXpXpXpXpXpXpXpXpXpXpXpXpXpXpXpXpXpXpXpXpXpXpXpXpXpXpXpXpXpXpXpX",
"pXpXpXpXpXpXpXpXpXpXpXpXpXpXpXpXpXpXpXpXpXpXpXpXpXpXl z T pXpXpXpXpXpXpXpXpXpXpXpXpXpXpXpXpXpXpX",
"pXpXpXpXpXpXpXpXpXpXpXpXpXpXpXpXpXpXpXpXpXpXpXpX% w H.,X<X` T pXpXpXpXpXpXpXpXpXpXpXpXpXpXpXpXpX",
"pXpXpXpXpXpXpXpXpXpXpXpXpXpXpXpXpXpXpXpXpXpXpX, Z t.~.a.S.4X:X( pXpXpXpXpXpXpXpXpXpXpXpXpXpXpXpX",
"pXpXpXpXpXpXpXpXpXpXpXpXpXpXpXpXpXpXpXpXpXpX: d t._..X].L g.,XF.l pXpXpXpXpXpXpXpXpXpXpXpXpXpXpX",
"pXpXpXpXpXpXpXpXpXpXpXpXpXpXpXpXpXpXpXpXpXpX, H /.).C.B.t.N qXqX] pXpXpXpXpXpXpXpXpXpXpXpXpXpXpX",
"pXpXpXpXpXpXpXpXpXpXpXpXpXpXpXpXpXpXpXpXpX: y J 4.d.=X2XU...-.;.=.; pXpXpXpXpXpXpXpXpXpXpXpXpXpX",
"pXpXpXpXpXpXpXpXpXpXpXpXpXpXpXpXpXpXpXpXpX= $ & 1 P.>X*XS.j.$.1...; pXpXpXpXpXpXpXpXpXpXpXpXpXpX",
"pXpXpXpXpXpXpXpXpXpXpXpXpXpXpXpXpXpXpXpXpX= . 2 } x O.| | P.K.#.+.l pXpXpXpXpXpXpXpXpXpXpXpXpXpX",
"pXpXpXpXpXpXpXpXpXpXpXpXpXpXpXpXpXpXpXpXpXpXO *.3 . 5 <.yX .d.Z.l.Y pXpXpXpXpXpXpXpXpXpXpXpXpXpX",
"pXpXpXpXpXpXpXpXpXpXpXpXpXpXpXpXpXpXpXpXpXpXj U N & 5 2.tX} ' ) Y pXpXpXpXpXpXpXpXpXpXpXpXpXpXpX",
"pXpXpXpXpXpXpXpXpXpXpXpXpXpXpXpXpXpXpX> $ # C u.^.p.} 2.3.>.X.; pXpXpXpXpXpXpXpXpXpXpXpXpXpXpXpX",
"pXpXpXpXpXpXpXpXpXpXpXpXpXpXpXpXpXpXq J 9.8 8 f.H.Z.M ,.<.:.} R pXpXpXpXpXpXpXpXpXpXpXpXpXpXpXpX",
"pXpXpXpXpXpXpXpXpXpXpXpXpXpXpXpXpX< G W.r.8 n -X7XY.v 6 4 { wXwX&.pXpXpXpXpXpXpXpXpXpXpXpXpXpXpX",
"pXpXpXpXpXpXpXpXpXpXpXpXpXpXpXpXpXe 5.u.9.8 m -X0X1X^ b e.L.eXiXrX[ pXpXpXpXpXpXpXpXpXpXpXpXpXpX",
"pXpXpXpXpXpXpXpXpXpXpXpXpXpXpXpXX & / @.M $ & l.5X-Xb._. X~.I.uXwX[ pXpXpXpXpXpXpXpXpXpXpXpXpXpX",
"pXpXpXpXpXpXpXpXpXpXpXpXpXpXo > 0 w v { b 5.w.I z.Z.`.%X@X}.V.$Xo.pXpXpXpXpXpXpXpXpXpXpXpXpXpXpX",
"pXpXpXpXpXpXpXpXpXpXpXpXpX> 0 C Z 8 @ . V /. Xn.F 7.'. X^.L w c pXpXpXpXpXpXpXpXpXpXpXpXpXpXpXpX",
"pXpXpXpXpXpXpXpXpXpXpXpXD c.^.4.8 0 0 $ y w.^.{.M.s V G a o pXpXpXpXpXpXpXpXpXpXpXpXpXpXpXpXpXpX",
"pXpXpXpXpXpXpXpXpXpXpXD ~.OXN.4.v.^.q.w _ *XT.Z.6.h *   pXpXpXpXpXpXpXpXpXpXpXpXpXpXpXpXpXpXpXpX",
"pXpXpXpXpXpXpXpXpXpXpXK +XoXs.6.@XOX(.H #X0X5Xk._ J.h.t pXpXpXpXpXpXpXpXpXpXpXpXpXpXpXpXpXpXpXpX",
"pXpXpXpXpXpXpXpXpXpXD ).%XoXs.i.&XoXn.I ;X9X6X%.D.3XA.f pXpXpXpXpXpXpXpXpXpXpXpXpXpXpXpXpXpXpXpX",
"pXpXpXpXpXpXpXpXpXpXK +X%XoXs.i.&XXXp.~ 4X9X1X_ g.G.~ a : pXpXpXpXpXpXpXpXpXpXpXpXpXpXpXpXpXpXpX",
"pXpXpXpXpXpXpXpXpXpXQ %X%X.X0.6.+X%X].! Y.8X=Xh # u 8.r.p pXpXpXpXpXpXpXpXpXpXpXpXpXpXpXpXpXpXpX",
"pXpXpXpXpXpXpXpXpXpXW OXm.h i r B M.+X[.! E k # 8 H R.Q.P : pXpXpXpXpXpXpXpXpXpXpXpXpXpXpXpXpXpX",
"pXpXpXpXpXpXpXpXpXpXt g i pXpXpXpXi B M.`.x.7 + d q.E.!.u.p pXpXpXpXpXpXpXpXpXpXpXpXpXpXpXpXpXpX",
"pXpXpXpXpXpXpXpXpXpXpXpXpXpXpXpXpXpXpXi u a r % d q.E.|.E.D pXpXpXpXpXpXpXpXpXpXpXpXpXpXpXpXpXpX",
"pXpXpXpXpXpXpXpXpXpXpXpXpXpXpXpXpXpXpXpXpXpXpX: d e.t.Q.E.9 X o pXpXpXpXpXpXpXpXpXpXpXpXpXpXpXpX",
"pXpXpXpXpXpXpXpXpXpXpXpXpXpXpXpXpXpXpXpXpXpXpX- d e.e.9.V A w.S X o pXpXpXpXpXpXpXpXpXpXpXpXpXpX",
"pXpXpXpXpXpXpXpXpXpXpXpXpXpXpXpXpXpXpXpXpXpXpX- d e.H 0 Z R.!.W.y.S : pXpXpXpXpXpXpXpXpXpXpXpXpX",
"pXpXpXpXpXpXpXpXpXpXpXpXpXpXpXpXpXpXpXpXpXpXpXpX% @ # A R.!.|.|.|.u.q pXpXpXpXpXpXpXpXpXpXpXpXpX",
"pXpXpXpXpXpXpXpXpXpXpXpXpXpXpXpXpXpXpXpXpXpXpXpX- 0 H 9.W.Q.w.0 $ p pXpXpXpXpXpXpXpXpXpXpXpXpXpX",
"pXpXpXpXpXpXpXpXpXpXpXpXpXpXpXpXpXpXpXpXpXpXpXpX- + @ @ $ $ * pXpXpXpXpXpXpXpXpXpXpXpXpXpXpXpXpX",
"pXpXpXpXpXpXpXpXpXpXpXpXpXpXpXpXpXpXpXpXpXpXpXpXpXpXpXpXpXpXpXpXpXpXpXpXpXpXpXpXpXpXpXpXpXpXpXpX",
"pXpXpXpXpXpXpXpXpXpXpXpXpXpXpXpXpXpXpXpXpXpXpXpXpXpXpXpXpXpXpXpXpXpXpXpXpXpXpXpXpXpXpXpXpXpXpXpX",
"pXpXpXpXpXpXpXpXpXpXpXpXpXpXpXpXpXpXpXpXpXpXpXpXpXpXpXpXpXpXpXpXpXpXpXpXpXpXpXpXpXpXpXpXpXpXpXpX",
"pXpXpXpXpXpXpXpXpXpXpXpXpXpXpXpXpXpXpXpXpXpXpXpXpXpXpXpXpXpXpXpXpXpXpXpXpXpXpXpXpXpXpXpXpXpXpXpX",
"pXpXpXpXpXpXpXpXpXpXpXpXpXpXpXpXpXpXpXpXpXpXpXpXpXpXpXpXpXpXpXpXpXpXpXpXpXpXpXpXpXpXpXpXpXpXpXpX",
"pXpXpXpXpXpXpXpXpXpXpXpXpXpXpXpXpXpXpXpXpXpXpXpXpXpXpXpXpXpXpXpXpXpXpXpXpXpXpXpXpXpXpXpXpXpXpXpX",
"pXpXpXpXpXpXpXpXpXpXpXpXpXpXpXpXpXpXpXpXpXpXpXpXpXpXpXpXpXpXpXpXpXpXpXpXpXpXpXpXpXpXpXpXpXpXpXpX"
};
