/* XPM */
static char *result[] = {
/* columns rows colors chars-per-pixel */
"48 48 227 2 ",
"   c #0D0E0C",
".  c #111211",
"X  c #191512",
"o  c #131319",
"O  c #171619",
"+  c #16171B",
"@  c #13161F",
"#  c #3C2014",
"$  c #312019",
"%  c #0E1423",
"&  c #141925",
"*  c #1B1B23",
"=  c #121A2B",
"-  c #171A2A",
";  c #111C29",
":  c #171B2D",
">  c #141A2F",
",  c #191F28",
"<  c #191D2E",
"1  c #0F1C32",
"2  c #0F1C3A",
"3  c #131B31",
"4  c #141D31",
"5  c #1C252C",
"6  c #172339",
"7  c #192039",
"8  c #1B2239",
"9  c #1B213F",
"0  c #242422",
"q  c #21212C",
"w  c #322C29",
"e  c #302E33",
"r  c #35363B",
"t  c #3C3C3C",
"y  c #78301B",
"u  c #46352F",
"i  c #602820",
"p  c #45403F",
"a  c #5A423E",
"s  c #614435",
"d  c #0E1D56",
"f  c #102543",
"g  c #192042",
"h  c #192143",
"j  c #182044",
"k  c #192146",
"l  c #1A2746",
"z  c #152944",
"x  c #1C2943",
"c  c #18244D",
"v  c #122757",
"b  c #182557",
"n  c #1B2658",
"m  c #0C345E",
"M  c #173057",
"N  c #183354",
"B  c #1E335F",
"V  c #2D244C",
"C  c #233542",
"Z  c #253547",
"A  c #21304F",
"S  c #243C4B",
"D  c #213952",
"F  c #323F5A",
"G  c #0C2964",
"H  c #1D2860",
"J  c #1C2A67",
"K  c #1D2A67",
"L  c #13286B",
"P  c #1D2B6C",
"I  c #0F3D6C",
"U  c #103167",
"Y  c #1D3667",
"T  c #1C3A6B",
"R  c #0E2D76",
"E  c #1D2E79",
"W  c #1D2F7D",
"Q  c #1A3070",
"!  c #24356E",
"~  c #223F68",
"^  c #3B3865",
"/  c #2A377A",
"(  c #3B4F5F",
")  c #214068",
"_  c #234374",
"`  c #295079",
"'  c #3D6670",
"]  c #474341",
"[  c #4B4B4D",
"{  c #414956",
"}  c #525253",
"|  c #595454",
" . c #5A5A5A",
".. c #735441",
"X. c #694052",
"o. c #77575B",
"O. c #504166",
"+. c #4E5460",
"@. c #415D64",
"#. c #474C72",
"$. c #6C4966",
"%. c #646465",
"&. c #6A6A6A",
"*. c #636575",
"=. c #7B7574",
"-. c #7E7E7E",
";. c #8D2F16",
":. c #844A33",
">. c #C95938",
",. c #885A49",
"<. c #975C45",
"1. c #A35A51",
"2. c #946B54",
"3. c #A87356",
"4. c #B07C5B",
"5. c #897C74",
"6. c #BB7E60",
"7. c #C86343",
"8. c #C98764",
"9. c #D9956A",
"0. c #C18A78",
"q. c #E9A77B",
"w. c #0D2D84",
"e. c #102E81",
"r. c #173985",
"t. c #13358E",
"y. c #1D3288",
"u. c #1B368E",
"i. c #093193",
"p. c #0E3295",
"a. c #183394",
"s. c #14379F",
"d. c #1B3C98",
"f. c #233C8F",
"g. c #103BA6",
"h. c #1039A8",
"j. c #0F3AB1",
"k. c #124384",
"l. c #0D4194",
"z. c #1D4391",
"x. c #254982",
"c. c #314B84",
"v. c #27518B",
"b. c #375780",
"n. c #345884",
"m. c #28549A",
"M. c #3E6C88",
"N. c #396296",
"B. c #386C95",
"V. c #346A99",
"C. c #3E779F",
"Z. c #0749AE",
"A. c #1543A7",
"S. c #1D40A3",
"D. c #0B44B4",
"F. c #0D40BF",
"G. c #0E4BBD",
"H. c #1249B0",
"J. c #1D4EB2",
"K. c #065FBD",
"L. c #1154B9",
"P. c #244DA9",
"I. c #2857B1",
"U. c #3963A6",
"Y. c #3F79AA",
"T. c #316DB1",
"R. c #356AB9",
"E. c #4C5982",
"W. c #5E5285",
"Q. c #4D5B90",
"!. c #43748D",
"~. c #4A7F97",
"^. c #626A8D",
"/. c #65778A",
"(. c #4964A3",
"). c #6F78A2",
"_. c #0A4AC6",
"`. c #0942C8",
"'. c #0654CC",
"]. c #0C5FCA",
"[. c #0843D0",
"{. c #084CD4",
"}. c #0558D6",
"|. c #0553DF",
" X c #056ACA",
".X c #0562DD",
"XX c #0769D9",
"oX c #367DCD",
"OX c #0347E1",
"+X c #0359E0",
"@X c #0157EC",
"#X c #0262ED",
"$X c #026CE9",
"%X c #016DEF",
"&X c #0067F9",
"*X c #0073F2",
"=X c #007BF3",
"-X c #007CF8",
";X c #7E858A",
":X c #4981A2",
">X c #4B8CAD",
",X c #589CB7",
"<X c #5396B9",
"1X c #5BA0B2",
"2X c #60A9BF",
"3X c #4381C7",
"4X c #4A92C6",
"5X c #559BCC",
"6X c #438CDA",
"7X c #5AA5CF",
"8X c #5EAED5",
"9X c #4D98E1",
"0X c #4F9FEC",
"qX c #55A3E2",
"wX c #64BDE3",
"eX c #60B6ED",
"rX c #6CC5E7",
"tX c #888888",
"yX c #939393",
"uX c #999A9E",
"iX c #A4A4A7",
"pX c gray69",
"aX c #CEAA96",
"sX c #BCBDC0",
"dX c gray81",
"fX c gainsboro",
"gX c None",
/* pixels */
"gXgXgXgXgXgXgXgXgXgXgXgXgXgXgXgXgXgXgXgXgXgXgXgXgXgXgXgXgXgXgXgXgXgXgXgXgXgXgXgXgXgXgXgXgXgXgXgX",
"gXgXgXgXgXgXgXgXgXgXgXgXgXgXgXgXgXgXgXgXgXgXgXgXgXgXgXgXgXgXgXgXgXgXgXgXgXgXgXgXgXgXgXgXgXgXgXgX",
"gXgXgXgXgXgXgXgXgXgXgXgXgXgXgXgXgXgXgXgXgXgXgXgXgXgXgXgXgXgXgXgXgXgXgXgXgXgXgXgXgXgXgXgXgXgXgXgX",
"gXgXgXgXgXgXgXgXgXgXgXgXgXgXgXgXgXgXgXgXgXgXgXgXgXgXgXgXgXgXgXgXgXgXgXgXgXgXgXgXgXgXgXgXgXgXgXgX",
"gXgXgXgXgXgXgXgXgXgXgXgXgXgXgXgXgXgXgX5 S Z C gXgXgXgXgXgXgXgXgXgXgXgXgXgXgXgXgXgXgXgXgXgXgXgXgX",
"gXgXgXgXgXgXgXgXgXgXgXgXgXgXgXgXgX, 6 M.1X5XY.Z : gXgXgXgXgXgXgXgXgXgXgXgXgXgXgXgXgXgXgXgXgXgXgX",
"gXgXgXgXgXgXgXgXgXgXgXgXgXgXgXgX2 M.<X7X:Xm.J.u.K j gXgXgXgXgXgXgXgXgXgXgXgXgXgXgXgXgXgXgXgXgXgX",
"gXgXgXgXgXgXgXgXgXgXgXgXgXgXgX2 ` 4X4XB.x.H.+X`.a.P g gXgXgXgXgXgXgXgXgXgXgXgXgXgXgXgXgXgXgXgXgX",
"gXgXgXgXgXgXgXgXgXgXgXgXgXgXgXS >XwXC.k.p.h._.OX`.s.b & gXgXgXgXgXgXgXgXgXgXgXgXgXgXgXgXgXgXgXgX",
"gXgXgXgXgXgXgXgXgXgXgXgXgXgXX ] tXuX| / S.I.I.j.[.j.Q g gXgXgXgXgXgXgXgXgXgXgXgXgXgXgXgXgXgXgXgX",
"gXgXgXgXgXgXgXgXgXgXgXgXgXgX# :.7.>.:.O.R.6X3Xv.h.t.W n 3 gXgXgXgXgXgXgXgXgXgXgXgXgXgXgXgXgXgXgX",
"gXgXgXgXgXgXgXgXgXgXgXgXgX  # ,.0.1.O.N.3X9X9X3X_ 9 c c : gXgXgXgXgXgXgXgXgXgXgXgXgXgXgXgXgXgXgX",
"gXgXgXgXgXgXgXgXgXgXgXgXgX  8 X.1.$.(.n.F n.Y.n.+.r q * + gXgXgXgXgXgXgXgXgXgXgXgXgXgXgXgXgXgXgX",
"gXgXgXgXgXgXgXgXgXgXgXgXgXo ) Q.W.(.n./.=.o.| r e y i $ + gXgXgXgXgXgXgXgXgXgXgXgXgXgXgXgXgXgXgX",
"gXgXgXgXgXgXgXgXgXgXgXgXgXgXD b.U.n.A ;XaX6.:.$ * ;.y #   gXgXgXgXgXgXgXgXgXgXgXgXgXgXgXgXgXgXgX",
"gXgXgXgXgXgXgXgXgXgXgXgXgXgXgXD b.+.e 5.aX9.:.r q i i V d gXgXgXgXgXgXgXgXgXgXgXgXgXgXgXgXgXgXgX",
"gXgXgXgXgXgXgXgXgXgXgXgXgXgXgXgXp 2...4.q.9.,.F 7 q W g.e.v j ; gXgXgXgXgXgXgXgXgXgXgXgXgXgXgXgX",
"gXgXgXgXgXgXgXgXgXgXgXgXgXgXgXgXgX<.8.9.q.9.:.e * R '.'.r.A _ M = gXgXgXgXgXgXgXgXgXgXgXgXgXgXgX",
"gXgXgXgXgXgXgXgXgXgXgXgXgXgXgXgXw 3.q.3.4.3.a A 7 l.+XF._ ~.4XT.) 5 gXgXgXgXgXgXgXgXgXgXgXgXgXgX",
"gXgXgXgXgXgXgXgXgXgXgX. . gXgXgXgXs 3.6.4.,.^ p.b l.OXj.~ 1XrXqXT.) & X gXgXgXgXgXgXgXgXgXgXgXgX",
"gXgXgXgXgXgXgXgXgXt } u  .p gXgXgXO u o.o.#.P.}.r.R p.w.B Y.wX5XU.z.k.M , gXgXgXgXgXgXgXgXgXgXgX",
"gXgXgXgXgXgXgXgXt -.yX| =.| 0 gXgXS ( F / H.$X$XA.J b k 7 ~ Y.U.m.L.'.t.h gXgXgXgXgXgXgXgXgXgXgX",
"gXgXgXgXgXgXgXgX&.pXpX| %.[ x 4 8 C.8X!.z.G..X{.s.f.B e r { E.c.J.}.{.a.9 gXgXgXgXgXgXgXgXgXgXgX",
"gXgXgXgXgXgXgX  &.iXtX[ %.#.d.w.~ ,XrX8XT.z.u.d.f.R.c.+.yXsXsX).J.F.s.E h gXgXgXgXgXgXgXgXgXgXgX",
"gXgXgXgXgXgXgX  } %.%.tXtXE.J.G.m.7XeX6Xv.l A U.5XqXN.{ tXdXfXiXQ.f.E h @ gXgXgXgXgXgXgXgXgXgXgX",
"gXgXgXgXgXgXgXgXw ] %.tX^.P.{.OX_.R.R.v.N . 8 x.U.U.~ +.iXfXfXpX^.! h = gXgXgXgXgXgXgXgXgXgXgXgX",
"gXgXgXgXgXgXgXgXgXw ] [ F y.j.F.h.Q Y f gXgX> t.L.G.t.#.uXdXfXpX*.Z o gXgXgXgXgXgXgXgXgXgXgXgXgX",
"gXgXgXgXgXgXgXgXgXgXo 0 & j H J n 3 & gXgXgX) A..X@XF./ *.iXsXyX} 5 gXgXgXgXgXgXgXgXgXgXgXgXgXgX",
"gXgXgXgXgXgXgXgXgXgXgXgXgXgXO : & gXgXgXgX' >XR.].|.F.r.( %.=.[ , gXgXgXgXgXgXgXgXgXgXgXgXgXgXgX",
"gXgXgXgXgXgXgXgXgXgXgXgXgXgXgXgXgXgXgXgX' 2XrX9XI.d.d.T.>X@.r q X gXgXgXgXgXgXgXgXgXgXgXgXgXgXgX",
"gXgXgXgXgXgXgXgXgXgXgXgXgXgXgXgXgXo O ` <XwXeX0XR.T Q T.8X2XV.A , gXgXgXgXgXgXgXgXgXgXgXgXgXgXgX",
"gXgXgXgXgXgXgXgXgXgXgXgXgXgXgXgXo j w._ Y.qX0XoXx.z 1 ` 4X!.x.! j gXgXgXgXgXgXgXgXgXgXgXgXgXgXgX",
"gXgXgXgXgXgXgXgXgXgXgXgXgXgXgXgX3 k.`.p._ N.T.x.z gXgXZ _ z.h.a.P g gXgXgXgXgXgXgXgXgXgXgXgXgXgX",
"gXgXgXgXgXgXgXgXgXgXgXgXgXgXgXgXv K.#XD.Q B T z gXgXgX. x D.|.`.s.P g gXgXgXgXgXgXgXgXgXgXgXgXgX",
"gXgXgXgXgXgXgXgXgXgXgXgXgXgXgX3 r.XX=XL.y.H 8 gXgXgXgXgX6 K.*X#XF.u.P j gXgXgXgXgXgXgXgXgXgXgXgX",
"gXgXgXgXgXgXgXgXgXgXgXgXgXgXgXv D.%X-XL.u.H : gXgXgXgXgXf K.=X-X].d.W P 8 gXgXgXgXgXgXgXgXgXgXgX",
"gXgXgXgXgXgXgXgXgXgXgXgXgXgXgXm ].-X-XL.u.H : gXgXgXgXgXf D.%X-X#XF.a.E 9 gXgXgXgXgXgXgXgXgXgXgX",
"gXgXgXgXgXgXgXgXgXgXgXgXgXgXgXm  X-X&XD.u.H : gXgXgXgXgXgXG K.=X&X[.a.W J 6 gXgXgXgXgXgXgXgXgXgX",
"gXgXgXgXgXgXgXgXgXgXgXgXgXgX. 4 k.}.[.s.y.H : gXgXgXgXgXgX3 Z.$X&X`.L c k < O gXgXgXgXgXgXgXgXgX",
"gXgXgXgXgXgXgXgXgXgXgXgXgX2 v U R p.a.y.y.H : gXgXgXgXgXgX% e.'.{.s.L c 9 9 9 3 gXgXgXgXgXgXgXgX",
"gXgXgXgXgXgXgXgXgXgXgXgX2 i.'..X_.w.J J P b 8 gXgXgXgXgXgXgX& w.w.p.j.s.u.W E H 6 gXgXgXgXgXgXgX",
"gXgXgXgXgXgXgXgXgXgXgX2 i.}.*X-X%X`.L 7 < k n > gXgXgXgXgXgX. - R _.$X$X|.j.u.W K > gXgXgXgXgXgX",
"gXgXgXgXgXgXgXgXgXgX2 i.}.*X=X*X|.j.E J J P J 4 gXgXgXgXgXgX. h l..X=X=X*X|.j.y.E K > gXgXgXgXgX",
"gXgXgXgXgXgXgXgXgXgX> c U I I I U c 9 7 7 9 7 - gXgXgXgXgXgX. - c I I I I U b k 9 7 * gXgXgXgXgX",
"gXgXgXgXgXgXgXgXgXgXgX@ ; ; ; ; ; @ @ @ @ @ @ gXgXgXgXgXgXgXgXgX@ ; ; ; ; ; ; @ @ @ @ gXgXgXgXgX",
"gXgXgXgXgXgXgXgXgXgXgXgXgXgXgXgXgXgXgXgXgXgXgXgXgXgXgXgXgXgXgXgXgXgXgXgXgXgXgXgXgXgXgXgXgXgXgXgX",
"gXgXgXgXgXgXgXgXgXgXgXgXgXgXgXgXgXgXgXgXgXgXgXgXgXgXgXgXgXgXgXgXgXgXgXgXgXgXgXgXgXgXgXgXgXgXgXgX",
"gXgXgXgXgXgXgXgXgXgXgXgXgXgXgXgXgXgXgXgXgXgXgXgXgXgXgXgXgXgXgXgXgXgXgXgXgXgXgXgXgXgXgXgXgXgXgXgX"
};
