/* XPM */
static char *result[] = {
/* columns rows colors chars-per-pixel */
"48 48 215 2 ",
"   c black",
".  c #010000",
"X  c #000101",
"o  c #010101",
"O  c #020100",
"+  c #000102",
"@  c #010102",
"#  c #000202",
"$  c #010202",
"%  c #020202",
"&  c #060403",
"*  c #000404",
"=  c #000405",
"-  c #000506",
";  c #0C0803",
":  c #010809",
">  c #020A0D",
",  c #010C0D",
"<  c #0A0A0B",
"1  c #120C06",
"2  c #1A1109",
"3  c #1E1308",
"4  c #030F14",
"5  c #011013",
"6  c #031418",
"7  c #001719",
"8  c #06161C",
"9  c #00181A",
"0  c #001B1C",
"q  c #131313",
"w  c #181717",
"e  c #191B1B",
"r  c #24190D",
"t  c #2E1E0D",
"y  c #39230F",
"u  c #3E2712",
"i  c #32261A",
"p  c #051C23",
"a  c #1D1F20",
"s  c #002529",
"d  c #00272B",
"f  c #0A242F",
"g  c #022B31",
"h  c #0C2F3D",
"j  c #1B2A32",
"k  c #003236",
"l  c #02363A",
"z  c #003A3F",
"x  c #282727",
"c  c #2A2C2B",
"v  c #343535",
"b  c #4B2F16",
"n  c #553618",
"m  c #623E1B",
"M  c #4D3E28",
"N  c #69421D",
"B  c #45423F",
"V  c #774C22",
"C  c #7D4F23",
"Z  c #76502A",
"A  c #674E35",
"S  c #0E3D4D",
"D  c #113645",
"F  c #2B3F48",
"G  c #004248",
"H  c #0E4456",
"J  c #004950",
"K  c #064C58",
"L  c #15465B",
"P  c #00535B",
"I  c #05515D",
"U  c #23514A",
"Y  c #154D64",
"T  c #015760",
"R  c #005B64",
"E  c #005D66",
"W  c #155F78",
"Q  c #20586B",
"!  c #006770",
"~  c #056A78",
"^  c #01737E",
"/  c #1B7D7D",
"(  c #494A4B",
")  c #52504E",
"_  c #735F4B",
"`  c #5E5F60",
"'  c #5D727A",
"]  c gray40",
"[  c #6D6D6D",
"{  c #787A7B",
"}  c #865729",
"|  c #9D632C",
" . c #8D633C",
".. c #A96A30",
"X. c #B77536",
"o. c #C07936",
"O. c #CA8039",
"+. c #D9893D",
"@. c #9F815A",
"#. c #BE975B",
"$. c #9C8977",
"%. c #DB924C",
"&. c #C79757",
"*. c #E59141",
"=. c #E79342",
"-. c #E09752",
";. c #FEA148",
":. c #FAA14C",
">. c #FDA754",
",. c #C6986C",
"<. c #D7A676",
"1. c #EAA96A",
"2. c #F9AB61",
"3. c #FBB067",
"4. c #FBB673",
"5. c #FDBB7B",
"6. c #1A6582",
"7. c #037A88",
"8. c #117089",
"9. c #1E7395",
"0. c #107A92",
"q. c #1F779A",
"w. c #2A6E8C",
"e. c #207FA3",
"r. c #00808B",
"t. c #018996",
"y. c #0A869A",
"u. c #058C9D",
"i. c #138099",
"p. c #238789",
"a. c #228A97",
"s. c #3D8399",
"d. c #1689A6",
"f. c #0991A5",
"g. c #1990AF",
"h. c #1196B1",
"j. c #1F92B7",
"k. c #149CBA",
"l. c #298BB6",
"z. c #2792BE",
"x. c #3CA6B0",
"c. c #39AABE",
"v. c #718D9A",
"b. c #619EB9",
"n. c #709DB0",
"m. c #5EAFBF",
"M. c #78A4B7",
"N. c #2999C7",
"B. c #2B9CCC",
"V. c #2E9FD0",
"C. c #1FA7CF",
"Z. c #23ADD8",
"A. c #28AFDC",
"S. c #39A4D3",
"D. c #28B0DE",
"F. c #32B4EB",
"G. c #33BDF5",
"H. c #56B7DA",
"J. c #62AECF",
"K. c #37C0FC",
"L. c #39C2FF",
"P. c #3EC2FD",
"I. c #44C0F3",
"U. c #46C4FD",
"Y. c #55C9FD",
"T. c #68C8E9",
"R. c #69D0FE",
"E. c #7BD6FF",
"W. c #858583",
"Q. c #8A8F91",
"!. c #939393",
"~. c #9A9A99",
"^. c #BDAD9D",
"/. c #8AA7B3",
"(. c #A2A2A2",
"). c #B8B7B7",
"_. c #B3B7B8",
"`. c #CCB095",
"'. c #E7B88A",
"]. c #FBC591",
"[. c #FECD9E",
"{. c #D9C8B8",
"}. c #FFD7B1",
"|. c #ABC7C9",
" X c #B7C8CF",
".X c #A9C4D0",
"XX c #BED5DF",
"oX c #8FDEFF",
"OX c #90D9F9",
"+X c #9AE1FF",
"@X c #A6E5FF",
"#X c #B3E0F2",
"$X c #B5EAFF",
"%X c #C5C6C6",
"&X c #DACEC3",
"*X c #C9CED0",
"=X c #CDD6DB",
"-X c #D9D7D4",
";X c #FBDFC4",
":X c #FFE9D4",
">X c #FBEBDC",
",X c #D8E1E4",
"<X c #C8E9F1",
"1X c #D2F1FF",
"2X c #E1E1E1",
"3X c #ECECEB",
"4X c #FFF1E3",
"5X c #FFF7EE",
"6X c #E0F3FC",
"7X c #E6F9FF",
"8X c #F5F4F4",
"9X c #F3FDFF",
"0X c #F9FAFA",
"qX c white",
"wX c None",
/* pixels */
"wXwXwXwXwXwXwXwXwXwXwXwXwXwXwXwXwXwXwXwXwXwXwXwXwXwXwXwXwXwXwXwXwXwXwXwXwXwXwXwXwXwXwXwXwXwXwXwX",
"wXwXwXwXwXwXwXwXwXwXwXwX  $ $ wXwXwXwXwXwXwXwXwXwXwXwXwXwXwXwXwX  $ %   wXwXwXwXwXwXwXwXwXwXwXwX",
"wXwXwXwXwXwXwXwXwXwX* . + 1 i   wXwXwXwXwXwXwXwXwXwXwXwXwXwXwX* 2 n n t . wXwXwXwXwXwXwXwXwXwXwX",
"wXwXwXwXwXwXwXwXwXO   & v $.A X   wXwXwXwXwXwXwXwXwXwXwXwXwXwX  i <.4.&.n &   wXwXwXwXwXwXwXwXwX",
"wXwXwXwXwXwXwXwX  < ) ~.{.@.1 o wXwXwXwXwXwXwXwXwXwXwXwXwXwXwXwXo ) &X:X'.} 1   wXwXwXwXwXwXwXwX",
"wXwXwXwXwXwXwX  < W.3X:X,.r   wXwXwXwXwXwXwXwXwXwXwXwXwXwXwXwXwXwX  ( 2X5X]. .; * wXwXwXwXwXwXwX",
"wXwXwXwXwXwXwX  [ 8X5X].V   wXwXwXwXwXwXwXwXwXwXwXwXwXwXwXwXwXwXwXwX$ !.qX>X1.n # wXwXwXwXwXwXwX",
"wXwXwXwXwXwXwX  !.qX4X4.N . wXwXwXwXwXwXwXwXwXwXwXwXwXwXwXwXwXwXwXwX$ W.qX5X5.V @ wXwXwXwXwXwXwX",
"wXwXwXwXwXwXwX  !.qX:X2.N   wXwXwXwXwXwXwXwXwXwXwXwXwXwXwXwXwXwXwXwX+ W.qX5X5.V @ wXwXwXwXwXwXwX",
"wXwXwXwXwXwXwX  !.5X].:.| &   wXwXwXwXwXwXwXwXwXwXwXwXwXwXwXwXwXwX# 2 ^.qX:X3.V @ wXwXwXwXwXwXwX",
"wXwXwXwXwXwXwX  W.}.>.;.=.n   $ o   @ < < < > > > > : - X < %     1 @.>X5X].:.N @ wXwXwXwXwXwXwX",
"wXwXwXwXwXwXwX  M -.;.;.;...& B )   F /._.M.l.l.l.0.! P , v { < &  .;X4X[.>.+.t . wXwXwXwXwXwXwX",
"wXwXwXwXwXwXwX  X m *.;.;.o.; _ _ j .X9X1XR.L.L.G.k.t.7.6 ( %Xe u 1.[.5.>.+.n     wXwXwXwXwXwXwX",
"wXwXwXwXwXwXwXwX  & b ..X.C & u i n.9X6XR.L.K.K.Z.u.t.7.6 B ^.w u X.X.X.| u     wXwXwXwXwXwXwXwX",
"wXwXwXwXwXwXwXwXwX    & ; &     a XX0X#XI.F.F.F.h.r.r.^ 6 b %.b   ; ; ; &     wXwXwXwXwXwXwXwXwX",
"wXwXwXwXwXwXwXwXwXwX+           c *X{ F D D D D g s s s 5 2 X.O.t           wXwXwXwXwXwXwXwXwXwX",
"wXwXwXwXwXwXwXwXwXwXwX  +       c %Xv                   G k t } t         wXwXwXwXwXwXwXwXwXwXwX",
"wXwXwXwXwXwXwXwXwXwXwXwXwX      c %Xv   X       X X X = P r.z +     . wXwXwXwXwXwXwXwXwXwXwXwXwX",
"wXwXwXwXwXwXwXwXwXwXwXwXwXwXwX  c =Xb.8.K :   5 6.6.T P ^ t.~ , %   wXwXwXwXwXwXwXwXwXwXwXwXwXwX",
"wXwXwXwXwXwXwXwXwXwXwXwXwXwXwX  x ,X@XI.g.6   8 J.I.k.t.t.u.7.5   wXwXwXwXwXwXwXwXwXwXwXwXwXwXwX",
"wXwXwXwXwXwXwXwXwXwXwXwXwXwXwX  x 2X9XoXV.8   e  XE.Z.u.f.C.z.6 wXwXwXwXwXwXwXwXwXwXwXwXwXwXwXwX",
"wXwXwXwXwXwXwXwXwXwXwXwXwXwXwX  x 2XqX$XS.8   e *XoXA.f.C.K.V.8   wXwXwXwXwXwXwXwXwXwXwXwXwXwXwX",
"wXwXwXwXwXwXwXwXwXwXwXwXwX  * . c 2XqX$XS.8   e *XoXD.h.F.L.V.6 O         wXwXwXwXwXwXwXwXwXwXwX",
"wXwXwXwXwXwXwXwXwXwXwXwXO - , X w ~.)./.w.>   < W.b.e.~ e.l.9.p 5 8 8 5 5 =   wXwXwXwXwXwXwXwXwX",
"wXwXwXwXwXwXwXwXwXwXwX+ , T ! p   < < < :       : > : - : : > P d.V.B.i.0.Y + wXwXwXwXwXwXwXwXwX",
"wXwXwXwXwXwXwXwXwXwXwXO h k.t.g                     = k J 0   J C.K.G.k.k.N.8   wXwXwXwXwXwXwXwX",
"wXwXwXwXwXwXwXwXwXwXwX  8 W I 6     , 0 0 r t t i x & k y.8.f 8 0.Z.C.f.k.z.6   wXwXwXwXwXwXwXwX",
"wXwXwXwXwXwXwXwXwXwXwXwX@ X =       G 7./ @.*.*.'.-X` = q.G.z.6 s ^ 7.7.g.L   .   wXwXwXwXwXwXwX",
"wXwXwXwXwXwX            $ ; N r     g 7.p.&.;.>.;X0X{ X q.L.B.6   5 6 8 c Z 1     + wXwXwXwXwXwX",
"wXwXwXwX+ a B ( ( ( ( D 5 & n 2     X l p.&.;.4.>X(.w 6 i.j.L :         1 b ;   - 0   wXwXwXwXwX",
"wXwXwX% ` -X8X8X8X8X,XH.H             - U #.1.`.!.w 6 ~ t.J     = , X & &     + : G + wX  @ + wX",
"wX  q Q.6X7X6X1X1X1X#Xc.E :             ; i i w & 5 q.C.u.G     l J & V } 2 wX  : E s + h 9.f wX",
"  a v.OXE.R.Y.Y.Y.Y.I.i.^ l     - g z z z l z z l K 8.0.~ P z z T J l M | } O 4 Q m.s.Y L N.Y   ",
"  { +XP.K.K.K.K.K.K.F.h g s     , J E E E E E E R R R R R R E E R R P 5 y O.r p s./.m.9.- 6.W % ",
"# ` OXP.K.K.K.K.K.K.F.H   : H f   = = = - = - - = - - = - = - - - - =   b O.t   < < l I - 6.6.$ ",
"wX$ ' OXY.K.K.K.K.U.T.a.W q.d.g     s p X g J J G 5 : z J p     o   1 C O.| 3 wXwX  + 0 z 7.K % ",
"wX* < { #XoXE.E.E.@X<Xx.k.e.g : = f 0.I X k 7.k.g.g : J y.8.f X wXwX. m } 3 wXwXwXwX    0 G 0   ",
"wXwX  & ] *X=X=X=X,X|.p.K 5 $ + 6 e.V.Y     S B.N.h   - 6.V.9.>   wXwX@ . wXwXwXwXwXwX  $ + # wX",
"wXwXwX  X w a x x x a 6 $   wX  X 8 p >     : p p >     > p 6 X     wXwXwXwXwXwXwXwXwXwXwXwXwXwX",
"wXwXwXwXwX              wXwXwX  = 0 =             wXwX#   > f -   # wXwXwXwXwXwXwXwXwXwXwXwXwXwX",
"wXwXwXwXwXwXwXwXwXwXwXwXwXwXwX  , G 5     wXwXwXwXwXwXwX  f 6.>   # wXwXwXwXwXwXwXwXwXwXwXwXwXwX",
"wXwXwXwXwXwXwXwXwXwXwXwXwXwXwX  X - X + wXwXwXwXwXwXwXwXwX+ : X   # wXwXwXwXwXwXwXwXwXwXwXwXwXwX",
"wXwXwXwXwXwXwXwXwXwXwXwXwXwXwX      +   wXwXwXwXwXwXwXwXwXwXo     +   wXwXwXwXwXwXwXwXwXwXwXwXwX",
"wXwXwXwXwXwXwXwXwXwXwXwXwXwXwX# :   + wXwXwXwXwXwXwXwXwXwXwXwX$ 5 :   wXwXwXwXwXwXwXwXwXwXwXwXwX",
"wXwXwXwXwXwXwXwXwXwXwXwXwX  k T k + wXwXwXwXwXwXwXwXwXwXwXwX  l ! l + wXwXwXwXwXwXwXwXwXwXwXwXwX",
"wXwXwXwXwXwXwXwXwXwXwXwXwXwX7 d * wXwXwXwXwXwXwXwXwXwXwXwXwXwX9 d 7 wXwXwXwXwXwXwXwXwXwXwXwXwXwX",
"wXwXwXwXwXwXwXwXwXwXwXwXwXwXwXwXwXwXwXwXwXwXwXwXwXwXwXwXwXwXwXwXwXwXwXwXwXwXwXwXwXwXwXwXwXwXwXwX",
"wXwXwXwXwXwXwXwXwXwXwXwXwXwXwXwXwXwXwXwXwXwXwXwXwXwXwXwXwXwXwXwXwXwXwXwXwXwXwXwXwXwXwXwXwXwXwXwX"
};
