/* XPM */
static char *result[] = {
/* columns rows colors chars-per-pixel */
"48 48 217 2 ",
"   c black",
".  c #000100",
"X  c #000101",
"o  c #020100",
"O  c #000102",
"+  c #010102",
"@  c #000202",
"#  c #010203",
"$  c #050301",
"%  c #000404",
"&  c #000505",
"*  c #020506",
"=  c #080603",
"-  c #080707",
";  c #0E0803",
":  c #000809",
">  c #020A0C",
",  c #0A0B0B",
"<  c #090D0D",
"1  c #130C06",
"2  c #1B120A",
"3  c #1E1308",
"4  c #020D10",
"5  c #011014",
"6  c #051319",
"7  c #001518",
"8  c #001719",
"9  c #0F171A",
"0  c #00181A",
"q  c #03181C",
"w  c #191818",
"e  c #1D1E1E",
"r  c #24190D",
"t  c #2E1D0C",
"y  c #2D2215",
"u  c #3C2611",
"i  c #312519",
"p  c #392C1F",
"a  c #021C21",
"s  c #071D24",
"d  c #002529",
"f  c #00272B",
"g  c #0A242F",
"h  c #1B272C",
"j  c #022B31",
"k  c #0C2E3B",
"l  c #003236",
"z  c #02363A",
"x  c #003A3F",
"c  c #282727",
"v  c #2A2C2B",
"b  c #343535",
"n  c #452C15",
"m  c #4F3216",
"M  c #57381A",
"N  c #633F1C",
"B  c #4D3E28",
"V  c #493F37",
"C  c #6B431D",
"Z  c #784D23",
"A  c #674E35",
"S  c #0E3242",
"D  c #1B3946",
"F  c #2B3F48",
"G  c #004045",
"H  c #004349",
"J  c #00484F",
"K  c #0D4150",
"L  c #004B52",
"P  c #064C58",
"I  c #13455A",
"U  c #02535C",
"Y  c #23514A",
"T  c #154D64",
"R  c #015860",
"E  c #005C64",
"W  c #005E66",
"Q  c #025F68",
"!  c #155F78",
"~  c #20586B",
"^  c #016772",
"/  c #076B7B",
"(  c #01737E",
")  c #434546",
"_  c #4E4D4C",
"`  c #5B5B5B",
"'  c #735F4B",
"]  c #606162",
"[  c gray40",
"{  c #6D6D6D",
"}  c gray47",
"|  c #855628",
" . c #96602D",
".. c #A1662D",
"X. c #A96A30",
"o. c #B57435",
"O. c #BD7735",
"+. c #B8783A",
"@. c #876748",
"#. c #9B7C5E",
"$. c #1E807F",
"%. c #CA8039",
"&. c #D9893D",
"*. c #A88B52",
"=. c #BE975B",
"-. c #9C8977",
";. c #90877E",
":. c #DB924C",
">. c #CE9054",
",. c #C39B59",
"<. c #E59142",
"1. c #E09752",
"2. c #FEA149",
"3. c #FDA754",
"4. c #CF9F71",
"5. c #E7A261",
"6. c #EEAA68",
"7. c #FAAE64",
"8. c #E9AD74",
"9. c #FBB673",
"0. c #FDBB7B",
"q. c #1A6582",
"w. c #027A87",
"e. c #0B798C",
"r. c #117089",
"t. c #1F7597",
"y. c #117A93",
"u. c #2A6E8C",
"i. c #3B7E9A",
"p. c #207FA3",
"a. c #677F8A",
"s. c #777D80",
"d. c #00808B",
"f. c #028A98",
"g. c #118199",
"h. c #24898D",
"j. c #228A97",
"k. c #1689A6",
"l. c #0990A4",
"z. c #1693B0",
"x. c #1F92B7",
"c. c #139CB8",
"v. c #149DBC",
"b. c #298BB6",
"n. c #2792BE",
"m. c #3CA6B0",
"M. c #39AABE",
"N. c #408798",
"B. c #619EB9",
"V. c #709DB0",
"C. c #5EAFBF",
"Z. c #7FA6B7",
"A. c #2999C7",
"S. c #2D9ECF",
"D. c #20A8CF",
"F. c #26AFDB",
"G. c #39A4D3",
"H. c #32B4EB",
"J. c #33BDF5",
"K. c #56B7DA",
"L. c #62AECF",
"P. c #43BEF1",
"I. c #37C0FC",
"U. c #39C1FD",
"Y. c #39C3FF",
"T. c #44C4FB",
"R. c #55C9FD",
"E. c #68C8E9",
"W. c #67CFFD",
"Q. c #6DD2FF",
"!. c #7BD6FF",
"~. c #838485",
"^. c #8A8F91",
"/. c #939292",
"(. c #999898",
"). c #8CA7B2",
"_. c #A2A2A2",
"`. c #B6ACA2",
"'. c #B6B7B8",
"]. c #C4AE98",
"[. c #CCB095",
"{. c #E7B88A",
"}. c #FDC58F",
"|. c #FAC797",
" X c #DACBBE",
".X c #FFD4AB",
"XX c #AFC7CE",
"oX c #BED5DF",
"OX c #8FDEFF",
"+X c #90D9F9",
"@X c #A2E4FF",
"#X c #B3E0F2",
"$X c #B5EAFF",
"%X c #C5C6C6",
"&X c #C9CED0",
"*X c #CCD4D9",
"=X c #CED8DD",
"-X c #D9D7D4",
";X c #D8DDDE",
":X c #FBDFC4",
">X c #FFE9D4",
",X c #FCECDD",
"<X c #D8E9EF",
"1X c #C8E9F1",
"2X c #D2F1FF",
"3X c #E1E1E1",
"4X c #ECECEB",
"5X c #FFF4EA",
"6X c #FFF8EF",
"7X c #E0F3FC",
"8X c #E6F9FF",
"9X c #F6F4F3",
"0X c #F4F3F4",
"qX c #F3FDFF",
"wX c #F9FAFA",
"eX c white",
"rX c None",
/* pixels */
"rXrXrXrXrXrXrXrXrXrXrXrXrXrXrXrXrXrXrXrXrXrXrXrXrXrXrXrXrXrXrXrXrXrXrXrXrXrXrXrXrXrXrXrXrXrXrXrX",
"rXrXrXrXrXrXrXrXrXrXrXrX        rXrXrXrXrXrXrXrXrXrXrXrXrXrXrXrXrX+ +   rXrXrXrXrXrXrXrXrXrXrXrX",
"rXrXrXrXrXrXrXrXrXrXrX# t M M 2 % rXrXrXrXrXrXrXrXrXrXrXrXrXrXrX  y 1 O # % rXrXrXrXrXrXrXrXrXrX",
"rXrXrXrXrXrXrXrXrX  $ M >.9.4.p X rXrXrXrXrXrXrXrXrXrXrXrXrXrX  . A -.b *   o rXrXrXrXrXrXrXrXrX",
"rXrXrXrXrXrXrXrXX 1 | {.>X X_ X rXrXrXrXrXrXrXrXrXrXrXrXrXrXrXrXX 1 #. X(._ , o rXrXrXrXrXrXrXrX",
"rXrXrXrXrXrXrX% ;  .|.6X3X_   rXrXrXrXrXrXrXrXrXrXrXrXrXrXrXrXrXrX  r 4.>X4X~., X rXrXrXrXrXrXrX",
"rXrXrXrXrXrXrX@ m 6.,XeX(.  rXrXrXrXrXrXrXrXrXrXrXrXrXrXrXrXrXrXrXrX  Z }.6X0X{   rXrXrXrXrXrXrX",
"rXrXrXrXrXrXrX+ Z 0.6XeX~.  rXrXrXrXrXrXrXrXrXrXrXrXrXrXrXrXrXrXrXrX# C 9.5XeX/.  rXrXrXrXrXrXrX",
"rXrXrXrXrXrXrX+ Z 0.5XeX~.O rXrXrXrXrXrXrXrXrXrXrXrXrXrXrXrXrXrXrXrX  C 7.>XeX/.  rXrXrXrXrXrXrX",
"rXrXrXrXrXrXrX+ Z 7.>XeX`.2 @ rXrXrXrXrXrXrXrXrXrXrXrXrXrXrXrXrXrXX $  .2.}.6X/.  rXrXrXrXrXrXrX",
"rXrXrXrXrXrXrX+ C 2.}.5X,X#.1     + , O * : > > > > , , > +   X +   m <.2.3..X;.  rXrXrXrXrXrXrX",
"rXrXrXrXrXrXrX# t &.3.|.,X:X@.$ , } b > U ^ y.b.b.b.Z.'.).F   _ ) = X.2.2.2.1.B   rXrXrXrXrXrXrX",
"rXrXrXrXrXrXrX  . M &.3.0..X8.u w %X_ 7 w.f.c.J.Y.Y.Q.2XqXXXh ' ' ; O.2.2.<.N .   rXrXrXrXrXrXrX",
"rXrXrXrXrXrXrXrX  . u  .o.+.o.u w ].V 7 w.f.f.D.I.U.U.W.7XqXV.i n = | O.X.m $   rXrXrXrXrXrXrXrX",
"rXrXrXrXrXrXrXrXrX    $ ; ; =   m :.n 7 ( d.d.z.H.H.H.P.#XwXoXh     $ ; =   o rXrXrXrXrXrXrXrXrX",
"rXrXrXrXrXrXrXrXrXrX          t %.o.2 5 d d d j S S S S F } &Xv           X rXrXrXrXrXrXrXrXrXrX",
"rXrXrXrXrXrXrXrXrXrXrX        t | y l G           O &     b %Xv           rXrXrXrXrXrXrXrXrXrXrX",
"rXrXrXrXrXrXrXrXrXrXrXrXrX#     O x d.U O O O O       O   b %Xv     X rXrXrXrXrXrXrXrXrXrXrXrXrX",
"rXrXrXrXrXrXrXrXrXrXrXrXrXrX    > ^ f.( U R q.q.4   > P r.B.*Xv   rXrXrXrXrXrXrXrXrXrXrXrXrXrXrX",
"rXrXrXrXrXrXrXrXrXrXrXrXrXrXrX  5 e.f.f.f.v.P.L.9   5 z.T.@X;Xc   rXrXrXrXrXrXrXrXrXrXrXrXrXrXrX",
"rXrXrXrXrXrXrXrXrXrXrXrXrXrXrXrX6 n.D.l.f.F.!.XXw   q S.OXqX3Xc   rXrXrXrXrXrXrXrXrXrXrXrXrXrXrX",
"rXrXrXrXrXrXrXrXrXrXrXrXrXrXrX  6 S.I.D.l.F.OX&Xw   q G.$XeX3Xc   rXrXrXrXrXrXrXrXrXrXrXrXrXrXrX",
"rXrXrXrXrXrXrXrXrXrXrX        o 6 S.Y.H.z.F.OX&Xw   q G.$XeX3Xv # %   rXrXrXrXrXrXrXrXrXrXrXrXrX",
"rXrXrXrXrXrXrXrXrX  & 5 5 6 q 5 s t.b.p./ p.B.~.,   4 u.Z.'.(.w . 4 & o rXrXrXrXrXrXrXrXrXrXrXrX",
"rXrXrXrXrXrXrXrXrXO T y.g.S.S.k.U 4 : : * > > *       * , , ,   a ^ U 4 X rXrXrXrXrXrXrXrXrXrXrX",
"rXrXrXrXrXrXrXrX  q A.c.v.J.I.D.J   a J l O                     j f.c.S o rXrXrXrXrXrXrXrXrXrXrX",
"rXrXrXrXrXrXrXrX  6 n.v.l.D.F.y.q g r.g.l * c i t t r q q >     7 U ! 6   rXrXrXrXrXrXrXrXrXrXrX",
"rXrXrXrXrXrXrX  #   I z.w.w.( d 6 n.J.t.& ` -X{.<.<.*.$.w.H       O . + rXrXrXrXrXrXrXrXrXrXrXrX",
"rXrXrXrXrXrX      1 Z v q 7 5   6 S.Y.t.O } wX:X3.2.,.h.w.j     r N =           X   rXrXrXrXrXrX",
"rXrXrXrXrX  q &   ; m 1         : I x.g.7 w _.,X9.2.,.$.z .     2 m = 5 D ) _ _ _ ) e X rXrXrXrX",
"rXX +   rX< H :       $ $ . > &     L f.^ 7 w /.[.5.=.Y &             I K.<X9X9X0X0X-X] - rXrXrX",
"rXg t.S O d Q :   rX2 | Z = J z     H l.D.t.5 = w i i =             : Q M.#X2X2X2X7X8X7X^.<   rX",
"X T A.I T N.C.~ # o | ..B z L R x x U / e.r.P z x x z x x x j *     z ( g.P.R.R.R.R.W.!.+Xa.e   ",
"  ! q.* t.C.).i.a r %.u 5 U E E E E E E E E E E E E E E E W L >     d j S H.I.I.I.I.I.I.U.@Xs.  ",
"+ q.q.: U z , ,   t %.n   & & & & & & & & & & & & & & & & & &   g I :   K H.U.I.I.I.I.I.T.+X] @ ",
"  P e.x a O   rXrX3 ..%.Z 1   X     a J G : 4 H J J j . a d     j k.t.! j.E.T.I.I.I.U.R.+Xa.< rX",
"X a H q     rXrXrXrX3 | N # rXrXO g r.f.J : j z.c.w.l . U y.g * : j p.v.m.1X@X!.!.!.OX#Xs., % rX",
"rX@       rXrXrXrXrXrX# + rXrX  > t.S.q.*   k A.S.K     T S.p.6     5 P h.XX;X=X=X*X&X[ $   rXrX",
"rXrXrXrXrXrXrXrXrXrXrXrXrXrX    . 6 s 4     > s s *     4 s q O   rX    7 e c c c e w O   rXrXrX",
"rXrXrXrXrXrXrXrXrXrXrXrXrXrX@   * g 4   @ rXrX            & q &   rXrXrX              rXrXrXrXrX",
"rXrXrXrXrXrXrXrXrXrXrXrXrXrX@   > q.g   rXrXrXrXrXrXrX    5 H >   rXrXrXrXrXrXrXrXrXrXrXrXrXrXrX",
"rXrXrXrXrXrXrXrXrXrXrXrXrXrX@   . > X rXrXrXrXrXrXrXrXrX  . & .   rXrXrXrXrXrXrXrXrXrXrXrXrXrXrX",
"rXrXrXrXrXrXrXrXrXrXrXrXrX        X rXrXrXrXrXrXrXrXrXrX  O       rXrXrXrXrXrXrXrXrXrXrXrXrXrXrX",
"rXrXrXrXrXrXrXrXrXrXrXrXrX  : 5 + rXrXrXrXrXrXrXrXrXrXrXrXX   : @ rXrXrXrXrXrXrXrXrXrXrXrXrXrXrX",
"rXrXrXrXrXrXrXrXrXrXrXrXrXO z ^ z   rXrXrXrXrXrXrXrXrXrXrXrX  l R l   rXrXrXrXrXrXrXrXrXrXrXrXrX",
"rXrXrXrXrXrXrXrXrXrXrXrXrXrX8 f 0 rXrXrXrXrXrXrXrXrXrXrXrXrXrX% f 8 rXrXrXrXrXrXrXrXrXrXrXrXrXrX",
"rXrXrXrXrXrXrXrXrXrXrXrXrXrXrXrXrXrXrXrXrXrXrXrXrXrXrXrXrXrXrXrXrXrXrXrXrXrXrXrXrXrXrXrXrXrXrXrX",
"rXrXrXrXrXrXrXrXrXrXrXrXrXrXrXrXrXrXrXrXrXrXrXrXrXrXrXrXrXrXrXrXrXrXrXrXrXrXrXrXrXrXrXrXrXrXrXrX"
};
